<svg width="187" height="714" viewBox="0 0 187 714" fill="none" xmlns="http://www.w3.org/2000/svg">
<g clip-path="url(#clip0_218_41)">
<path d="M163.438 399.033C162.793 396.722 161.764 393.062 162.62 391.69C168.337 381.081 167.174 382.44 169.154 379.449C170.276 377.737 169.68 374.024 170.232 372.105C171.603 361.497 172.645 364.675 173.236 361.497C173.931 367.986 175.047 382.473 170.232 387.345C167.17 390.43 165.401 394.589 163.438 399.033Z" fill="black"/>
<path d="M163.438 397.402C162.957 395.869 163.038 392.481 163.711 391.311C165.219 388.73 166.781 385.261 168.337 382.713C169.22 381.254 169.229 379.451 169.662 377.817C169.154 367.209 172.445 361.757 172.911 359.048C173.455 364.578 175.686 381.081 169.582 386.405C167.175 389.033 165.442 394.404 163.438 397.402Z" fill="white"/>
<path d="M21.846 400.666C22.49 398.354 23.5196 394.695 22.6625 393.321C16.9466 382.713 18.1096 384.073 16.13 381.081C15.0076 379.37 15.603 375.656 15.052 373.738C13.6804 363.128 12.6391 366.308 12.0472 363.128C11.3534 369.619 10.2356 384.106 15.052 388.978C18.1132 392.062 19.8827 396.222 21.846 400.666Z" fill="black"/>
<path d="M21.8468 399.033C22.3278 397.502 22.2464 394.114 21.5728 392.944C20.0652 390.363 18.5031 386.894 16.9474 384.345C16.0654 382.887 16.0558 381.084 15.6228 379.448C16.1309 368.84 12.5132 365.837 12.0481 363.128C11.5028 368.659 9.59842 382.713 15.703 388.037C18.1086 390.666 19.842 396.037 21.8468 399.033Z" fill="white"/>
<path d="M64.8427 52.1533C64.6343 52.1533 64.4258 52.0731 64.2653 51.9129C59.9673 47.5855 57.754 33.6258 60.7371 29.635C60.8974 29.4266 61.138 29.3145 61.3786 29.3145C61.4748 29.3145 61.5871 29.3304 61.6833 29.3785C64.0248 30.3402 65.0512 31.8948 64.9229 34.2668C64.7465 37.328 64.8428 40.3893 64.939 42.7132C65.0191 44.5884 65.1956 46.4636 65.372 48.4509C65.4522 49.3646 65.5484 50.3102 65.6286 51.2879C65.6607 51.6244 65.4682 51.9449 65.1636 52.0892C65.0512 52.1373 64.939 52.1693 64.8267 52.1693L64.8427 52.1533Z" fill="black"/>
<path d="M64.8426 51.336C64.5859 48.2106 64.2652 45.4699 64.153 42.7293C64.0247 39.8925 63.9766 37.0396 64.137 34.2028C64.2652 31.9911 63.2228 30.853 61.3944 30.1158C58.6681 33.77 60.737 47.2009 64.8426 51.3521V51.336Z" fill="white"/>
<path d="M119.981 51.8646C119.868 51.8646 119.756 51.8486 119.66 51.8006C119.355 51.6723 119.163 51.3678 119.179 51.0313L119.74 37.0875C119.74 36.8151 119.772 36.5265 119.788 36.2541C119.836 35.597 119.868 34.9558 119.82 34.3629C119.596 31.9106 120.67 30.2278 123.044 29.3784C123.14 29.3463 123.22 29.3303 123.317 29.3303C123.573 29.3303 123.83 29.4586 123.974 29.6829C126.829 33.7699 124.696 47.5213 120.574 51.6402C120.414 51.8006 120.205 51.8807 119.997 51.8807L119.981 51.8646Z" fill="black"/>
<path d="M119.981 51.0474C123.878 47.1527 125.899 33.85 123.285 30.1157C121.344 30.8208 120.398 32.1352 120.606 34.2667C120.687 35.1963 120.575 36.1579 120.526 37.1036C120.35 41.6713 120.157 46.2391 119.965 51.0474H119.981Z" fill="white"/>
<path d="M116.453 713.985C114.175 713.985 112.122 712.911 110.342 710.812C108.45 708.568 106.83 705.859 105.258 703.246C104.44 701.899 103.687 700.618 102.885 699.4C101.008 696.562 100.078 693.342 100.014 689.575C99.9017 682.299 99.6932 674.974 99.4848 667.874C99.3565 663.338 99.2281 658.786 99.1158 654.251C99.0196 650.244 98.9555 646.237 98.8913 642.23C98.7951 636.316 98.6989 630.209 98.5064 624.135C98.1696 613.91 97.6885 603.492 97.2395 593.444L96.8866 585.542C96.614 579.307 96.2612 571.95 95.8121 564.482C95.6036 561.02 95.363 557.543 95.1224 554.081C94.7376 548.663 94.3526 543.054 94.1121 537.508C93.7432 529.014 93.3583 520.215 93.6309 511.367C93.8234 505.485 94.4649 499.523 95.0743 493.77L95.1064 493.513C95.3309 491.429 95.5555 489.347 95.7479 487.263C96.9026 475.418 97.095 465.529 96.3895 456.153C96.2771 454.711 96.213 453.269 96.1809 451.858C96.0205 444.117 96.0366 430.637 96.0526 416.357C96.0687 400.86 96.1007 384.929 95.8762 376.385C95.8762 372.042 95.8602 368.853 95.8281 366.448C95.78 361.047 95.764 359.605 96.2931 358.307C96.3414 358.21 96.3895 358.098 96.4376 357.986C95.6517 358.291 94.7375 358.451 93.7111 358.451C93.0696 358.451 92.4602 358.387 91.8989 358.322C94.08 362.874 93.0054 374.671 92.1234 384.271C91.8187 387.701 91.5299 390.874 91.4337 393.214C91.2092 398.583 91.0809 404.386 91.0008 410.973C90.8563 425.766 90.2149 435.463 89.5253 445.72C89.2846 449.357 89.0281 453.125 88.8036 457.244C88.7234 458.67 88.6111 460.096 88.4988 461.522C88.2903 464.152 88.0979 466.747 88.0498 469.28C88.0017 472.421 88.1139 475.802 88.4026 479.634L88.611 482.359C89.0601 488.497 89.5413 494.86 90.279 501.062C91.113 507.97 91.3696 515.454 91.097 524.623C90.9206 530.44 90.5677 536.322 90.2309 542.011C90.2309 542.011 89.9743 546.371 89.862 548.311C89.6856 551.516 89.4932 554.721 89.3008 557.943C89.1403 560.571 88.98 563.2 88.8356 565.828C88.7073 568.2 88.5629 570.588 88.4186 572.976C88.0498 578.987 87.6809 585.109 87.4403 591.151C87.0874 600.126 86.8148 609.246 86.5583 618.078L86.1093 633.287C85.7564 644.635 85.4035 656.383 85.1148 667.923C85.0667 670.005 84.9865 672.089 84.9224 674.173C84.7619 678.661 84.6016 683.276 84.6497 687.811C84.6978 692.331 83.078 695.97 81.378 699.817L80.8649 700.97C80.4318 701.964 80.0789 702.958 79.7422 703.919C78.796 706.613 77.9139 709.144 75.3317 711.564C73.8242 712.975 70.6327 713.969 67.5855 713.969C66.8958 713.969 66.2544 713.92 65.6449 713.825C64.4741 713.632 62.2769 713.28 60.8817 712.013C60.0157 711.212 59.0052 710.379 57.9628 709.482C54.627 706.66 50.9222 703.535 49.0618 700.233C45.8542 694.527 47.2656 692.38 50.0722 688.085L50.7938 686.962C55.5251 679.606 57.5137 672.811 59.8232 664.925C60.6571 662.056 61.5233 659.139 62.5496 656.046C62.4855 655.854 62.325 655.517 62.1968 655.245C61.5231 653.77 60.7052 651.927 61.2024 650.725C61.6033 649.779 61.7959 648.882 61.9241 648.337C61.9723 648.129 62.0043 647.968 62.0364 647.873C63.4798 642.872 62.8543 638.529 62.1968 633.928C61.86 631.621 61.5231 629.248 61.4109 626.636C60.3845 604.663 56.5034 581.07 49.1902 552.43C47.0571 544.063 45.0363 535.857 43.8334 527.379C42.791 520.055 42.8231 512.425 43.9137 504.717C44.7477 498.882 45.6137 493.048 46.4958 487.215L46.5439 486.942C47.2014 482.566 47.859 478.191 48.4845 473.815C48.9014 470.899 49.2864 467.982 49.6712 465.064C49.9118 463.173 50.1524 461.346 50.409 459.52C51.0024 455.16 50.4571 450.64 48.709 445.671C46.0466 438.075 43.1758 430.702 40.9627 425.108C36.9371 414.931 35.5099 404.306 34.1466 394.031C33.3768 388.246 32.5749 382.267 31.3239 376.354C29.8645 369.446 29.4315 362.394 29.0145 355.566C28.8221 352.377 28.6136 349.091 28.3088 345.838C27.6031 338.225 27.6352 331.91 27.6995 325.227C27.7155 322.421 27.7476 319.537 27.6995 316.395C27.6033 306.635 29.4636 294.262 31.2277 285.944C33.874 273.506 40.5136 252.014 40.7862 251.1C40.69 249.481 38.8938 208.147 34.5797 194.3C34.4513 193.883 33.6815 180.708 34.5316 186.59C35.3816 192.472 36.0711 193.834 36.1192 193.834C36.023 193.498 36.4721 193.834 36.1192 193.834C40.5136 207.954 42.3098 249.498 42.3901 251.261C42.3901 251.309 42.3741 251.485 42.3579 251.533C42.0693 252.462 35.4297 274.003 32.8155 286.296C31.0674 294.534 29.2231 306.779 29.3193 316.412C29.3513 319.552 29.3193 322.454 29.3193 325.243C29.2712 331.894 29.2231 338.16 29.9286 345.709C30.2334 348.963 30.4419 352.265 30.6343 355.453C31.0513 362.282 31.4844 369.27 32.9277 376.049C34.1947 382.043 34.9966 388.037 35.7664 393.855C37.1938 404.513 38.525 414.562 42.4863 424.563C44.6996 430.157 47.5863 437.545 50.2486 445.191C52.0769 450.4 52.6543 455.16 52.0127 459.776C51.7562 461.602 51.5317 463.43 51.291 465.257C50.9062 468.206 50.5212 471.155 50.0883 474.088C49.4467 478.464 48.7892 482.839 48.1476 487.215C47.2656 493.145 46.3835 499.059 45.5335 504.989C44.4589 512.57 44.4268 520.038 45.4533 527.203C46.6561 535.617 48.6609 543.774 50.7779 552.077C58.1071 580.83 62.0043 604.518 63.0467 626.603C63.1591 629.153 63.4958 631.492 63.8167 633.752C64.4902 638.529 65.1477 643.032 63.6081 648.369C63.5921 648.449 63.56 648.561 63.5279 648.722C63.3996 649.33 63.175 650.324 62.726 651.397C62.4855 651.959 63.3355 653.818 63.6883 654.62C64.1374 655.629 64.3138 655.999 64.1694 656.415C63.111 659.54 62.2449 662.521 61.4109 665.39C59.1656 673.068 57.0326 680.312 52.1731 687.86L51.4354 688.982C48.6769 693.197 47.7628 694.624 50.4892 699.464C52.1891 702.494 55.7817 705.522 58.9411 708.199C60.0638 709.144 61.0902 710.01 61.9883 710.827C63.0307 711.773 64.9072 712.077 65.9175 712.238C66.4629 712.318 67.0242 712.366 67.6175 712.366C70.5525 712.366 73.2309 711.357 74.2572 710.394C76.5507 708.247 77.3686 705.906 78.2346 703.423C78.5875 702.429 78.9403 701.403 79.4054 700.345L79.9186 699.175C81.6185 695.329 83.094 691.995 83.0459 687.844C82.9978 683.261 83.1583 678.629 83.3186 674.124C83.3988 672.042 83.4629 669.958 83.5111 667.874C83.8157 656.318 84.1686 644.586 84.5054 633.223L84.9545 618.078C85.2111 609.246 85.4838 600.126 85.8366 591.071C86.0771 584.997 86.446 578.843 86.8148 572.896C86.9593 570.493 87.1036 568.12 87.2479 565.732C87.3922 563.136 87.745 557.446 87.745 557.446C87.9375 554.368 88.1139 551.292 88.2903 548.214C88.4026 546.291 88.5148 544.368 88.6272 542.444L88.6591 541.916C88.996 536.242 89.3489 530.376 89.5253 524.574C89.7979 515.486 89.5413 508.082 88.7234 501.254C87.9696 495.003 87.5045 488.625 87.0394 482.471L86.8309 479.746C86.5422 475.867 86.43 472.437 86.4781 469.248C86.5262 466.667 86.7186 464.04 86.9271 461.522C87.0393 460.033 87.1517 458.589 87.2319 457.147C87.4724 453.012 87.7129 449.262 87.9536 445.607C88.6272 435.366 89.2686 425.686 89.4289 410.941C89.4932 404.353 89.6375 398.536 89.862 393.134C89.9582 390.746 90.247 387.541 90.5677 384.159C91.4337 374.686 92.7328 360.439 89.862 358.115C89.2686 357.634 89.3489 357.184 89.4611 356.945C89.6856 356.432 90.1508 356.432 90.3111 356.432C90.5196 356.432 90.8082 356.479 91.1932 356.544C91.8828 356.656 92.797 356.816 93.7752 356.816C94.7535 356.816 95.5876 356.64 96.245 356.32C97.1432 355.854 98.5545 354.653 100.19 351.496C100.271 351.334 100.511 350.886 100.992 350.886C101.105 350.886 101.217 350.918 101.329 350.966C102.035 351.287 101.762 351.96 101.634 352.313C101.506 352.649 101.265 353.291 100.88 354.3C100.672 354.861 100.11 355.615 99.4527 356.496C98.7951 357.361 98.0894 358.307 97.8488 358.9C97.4479 359.91 97.464 361.416 97.5121 366.433C97.5281 368.836 97.5602 372.026 97.5602 376.354C97.7848 384.912 97.7686 400.843 97.7367 416.262C97.7205 430.622 97.7045 444.085 97.865 451.81C97.8969 453.204 97.9612 454.614 98.0734 456.026C98.7951 465.497 98.5867 475.466 97.4159 487.407C97.2074 489.571 96.9667 491.735 96.7422 493.897C96.1167 499.652 95.4914 505.582 95.2988 511.416C95.0262 520.198 95.395 528.966 95.764 537.428C96.0045 542.957 96.4055 548.551 96.7743 553.952C97.015 557.43 97.2555 560.892 97.464 564.369C97.9131 571.838 98.2498 579.227 98.5386 585.445L98.8913 593.347C99.3565 603.413 99.8215 613.815 100.174 624.055C100.367 630.05 100.463 636.141 100.559 642.023C100.623 646.173 100.688 650.164 100.784 654.171C100.896 658.706 101.024 663.242 101.153 667.794V668.05C101.361 675.086 101.57 682.362 101.682 689.511C101.73 692.973 102.58 695.89 104.28 698.47C105.082 699.688 105.884 701.019 106.654 702.3C108.241 704.945 109.813 707.574 111.625 709.721C113.085 711.437 114.737 712.318 116.533 712.318C118.762 712.318 120.51 711.004 120.831 710.747C122.002 709.818 123.606 708.744 125.306 707.606C128.898 705.201 132.956 702.494 134.511 700.041C136.948 696.194 137.19 691.691 135.298 685.889C133.726 681.08 131.545 676.224 129.444 671.512C127.23 666.56 124.937 661.431 123.317 656.318C123.124 655.71 123.349 654.86 123.766 653.385C124.039 652.408 124.456 650.934 124.327 650.436C124.199 649.988 123.365 649.186 122.82 648.657C121.986 647.873 121.473 647.36 121.328 646.782C119.243 638.721 119.356 635.066 119.853 626.844C120.302 619.264 121.04 611.843 121.697 605.576C122.499 597.899 125.049 590.222 127.519 582.801C129.138 577.897 130.807 572.881 131.929 567.975C132.699 564.61 133.484 561.229 134.271 557.862L134.367 557.478C136.355 548.919 138.408 540.073 140.302 531.337C141.311 526.674 142.386 520.551 141.857 514.397C141.102 505.886 139.98 497.408 138.969 490.228C138.361 485.884 137.655 481.46 136.981 477.197C136.131 471.86 135.298 466.508 134.591 461.218C134.127 457.644 134.207 454.198 134.864 451.282C136.228 445.111 137.718 440.19 139.563 435.782C145.658 421.151 152.827 401.693 154.125 380.937C154.447 375.777 154.623 371.498 154.799 367.347C155.008 362.169 155.216 357.281 155.665 351.623C155.922 348.482 156.211 345.357 156.5 342.232L156.916 342.087L156.515 342.055C156.868 338.16 157.253 334.121 157.526 330.163C157.926 324.714 158.167 319.233 158.247 313.864C158.295 311.09 157.831 308.238 157.397 305.481C157.237 304.52 157.093 303.574 156.964 302.628C156.66 300.416 156.387 298.157 156.131 295.976C155.536 291.008 154.928 285.927 153.804 281.023C151.64 271.631 149.283 263.618 147.726 258.312C146.764 255.011 146.123 252.831 145.994 251.949C145.273 246.436 144.359 193.194 147.855 183.802C150.036 177.968 150.534 177.535 151.11 177.535C151.159 177.535 151.351 177.582 151.399 177.599C152.297 177.92 152.313 178.224 150.02 185.02C149.924 185.324 149.876 185.708 149.891 186.126L149.956 187.439C150.1 190.661 150.245 193.979 150.437 197.248C150.838 203.676 151.222 209.974 151.72 216.385C152.04 220.616 152.49 224.911 152.922 229.079L152.954 229.336C153.083 230.489 153.243 231.675 153.404 232.813C153.692 234.848 153.998 236.948 154.045 239.048C154.334 251.501 155.986 262.896 159.082 273.891C164.118 291.745 167.036 305.626 168.544 318.88C169.073 323.544 168.816 335.291 167.068 339.796L166.715 340.677C165.272 344.363 164.005 347.536 164.069 351.431C164.118 354.765 164.213 358.178 164.31 361.464L164.502 368.356C164.614 372.235 164.711 376.193 164.888 380.056C164.888 380.28 164.888 380.536 164.888 380.793C164.855 381.627 164.871 382.379 165.207 382.524C165.384 382.588 165.544 382.636 165.705 382.636C165.882 382.636 166.042 382.588 166.202 382.491C167.052 382.011 167.709 380.409 167.918 379.079C168.19 377.316 168.415 375.505 168.608 373.757C168.848 371.705 169.089 369.623 169.441 367.571C169.795 365.567 170.452 363.484 171.447 361.336C172.249 359.589 173.451 358.708 175.038 358.708C175.312 358.708 175.584 358.74 175.873 358.788C176.306 358.868 176.595 359.285 176.531 359.717C176.402 360.471 175.793 360.743 175.504 360.872C175.424 360.904 175.376 360.935 175.312 360.967C173.916 361.816 173.515 362.842 173.852 364.717C174.109 366.112 174.542 367.571 174.975 368.981C175.632 371.16 176.322 373.404 176.402 375.665C176.578 380.424 175.263 384.159 172.392 387.092C171.398 388.117 170.597 389.255 169.762 390.458C169.426 390.938 169.089 391.419 168.753 391.9C167.934 393.006 166.939 393.904 165.977 394.769C165.625 395.09 165.336 395.346 165.047 395.618C164.293 396.324 163.844 396.932 163.62 397.558C163.428 398.086 163.363 398.711 163.411 399.529C163.443 399.978 163.492 400.379 163.572 400.731C163.637 400.731 164.085 400.474 164.405 400.138C165.481 399.017 166.443 397.717 167.373 396.467C167.934 395.715 168.464 394.993 169.025 394.305C170.998 392.108 172.825 389.736 174.59 387.429C175.456 386.306 176.322 385.168 177.188 384.079C177.413 383.806 177.702 383.373 177.814 382.924C179.354 376.85 180.909 369.879 180.797 364.253C180.636 355.694 181.983 326.652 182.962 305.464V305.289C183.459 294.87 183.86 285.88 183.987 281.825C184.069 279.293 184.229 276.68 184.373 274.372C184.501 272.305 184.63 270.173 184.71 268.089C184.966 261.646 184.983 254.738 183.523 248.007L183.122 246.228C182.417 243.118 181.694 239.913 181.567 236.692C181.373 231.852 181.405 226.948 181.438 222.204C181.454 219.51 181.487 216.834 181.454 214.158C181.358 201.527 181.903 188.338 182.417 175.595V175.403C182.738 167.79 183.058 159.905 183.234 152.275C183.379 146.138 180.732 138.284 178.118 131.425C176.627 127.498 173.306 123.555 169.249 120.895C166.988 119.42 163.395 118.603 159.915 117.801C158.119 117.401 156.275 116.968 154.559 116.455C149.635 114.964 145.192 113.073 140.494 111.07C137.8 109.916 135.024 108.746 132.154 107.64C130.775 107.111 129.315 106.598 127.824 106.069C124.087 104.739 120.286 103.393 117.03 101.71C113.823 100.043 111.834 97.1421 111.449 93.552C110.968 89.1444 110.727 84.785 110.551 81.4833C110.455 79.6883 110.487 77.8612 110.503 75.9218V75.3769C110.198 75.7616 109.925 76.0822 109.605 76.3867C108.915 77.0437 108.225 77.733 107.552 78.4221C105.723 80.2652 103.831 82.1566 101.682 83.6631C98.4262 85.939 95.4111 87.0449 92.4602 87.0449C89.4932 87.0449 86.462 85.9229 83.2224 83.599C80.913 81.9482 78.9242 79.8646 76.9836 77.8451C76.1336 76.9476 75.2836 76.0662 74.4016 75.2167C74.3855 75.2006 74.3534 75.1687 74.3374 75.1525V76.2104C74.3534 78.4061 74.3695 80.4737 74.3053 82.5412C74.2091 86.0672 74.0488 89.1765 73.8081 92.0453C73.4393 96.4528 71.4345 99.7385 67.8582 101.806C65.7091 103.056 63.2072 104.466 60.6251 105.556C50.2647 109.932 40.0165 113.57 30.49 116.84C30.0089 117 29.5438 117.176 29.0948 117.352C27.7155 117.865 26.4164 118.362 24.9249 118.49C14.5483 119.452 10.571 125.206 7.79648 133.54C5.58327 140.175 3.56251 146.682 3.11345 153.462C2.82476 157.853 3.70683 162.582 4.55684 167.165C5.32665 171.252 6.1125 175.467 6.08043 179.49C6.03231 185.82 5.8559 192.248 5.67949 198.451C5.47099 206.111 5.24647 213.933 5.2625 221.626C5.2625 223.982 5.16627 226.323 5.054 228.597L4.95778 230.858C4.92571 231.611 4.90967 232.38 4.87759 233.149C4.7974 235.954 4.73325 238.823 4.10778 241.579C1.10871 254.77 1.42948 267.912 2.03892 277.881C2.15118 279.838 2.29552 281.808 2.43986 283.764C2.80873 288.988 3.19364 294.374 3.19364 299.711C3.19364 307.195 3.46627 316.267 3.75495 325.9C4.09174 337.263 4.44458 348.946 4.33231 357.971C4.33231 358.371 4.33231 358.691 4.2842 358.996C3.61061 364.83 4.17193 371.08 6.01628 378.661C6.12854 379.111 6.22478 379.592 6.33704 380.12C6.85025 382.524 7.45969 385.36 8.77479 386.931C11.2767 389.897 13.7626 392.958 16.1683 395.923C17.5474 397.605 18.8786 399.256 20.2098 400.875C20.322 401.019 20.4343 401.196 20.5465 401.388C20.5786 401.437 20.6267 401.532 20.6908 401.629C20.5786 400.411 19.4079 396.499 18.0607 394.497C17.4512 393.598 16.89 392.701 16.3447 391.82C15.2702 390.104 14.2757 388.518 13.0088 386.931C11.3408 384.832 10.5871 382.877 10.6352 380.793C10.6673 379.335 10.6352 377.861 10.6352 376.417C10.5871 373.389 10.5389 370.263 10.988 367.234C11.3889 364.558 10.8597 363.211 8.98327 362.073C8.45403 361.769 8.58235 361.176 8.63046 360.952C8.67857 360.647 8.79082 360.439 8.96724 360.31C9.11158 360.198 9.27196 360.15 9.44838 360.15C11.2125 360.471 12.1106 360.631 12.9447 362.234C13.8748 364.045 14.9173 366.144 15.3343 368.324C15.7673 370.6 16.0238 372.94 16.2805 375.199C16.4569 376.723 16.6333 378.309 16.8579 379.848C17.1145 381.611 18.0126 383.261 19.3598 384.463C20.0815 383.069 20.1617 381.579 20.1777 379.928C20.2258 376.322 20.2258 372.636 20.2098 369.093C20.2098 366.898 20.2098 364.766 20.2098 362.618C20.2098 362.185 20.2098 361.736 20.2098 361.303C20.2098 359.749 20.1777 358.163 20.4022 356.592C20.9796 352.425 20.2739 347.953 18.189 342.52C15.9757 336.766 15.8314 322.085 16.6012 316.636C18.2852 304.68 20.707 292.788 23.8183 281.328C25.3578 275.638 27.3145 268.137 28.8221 260.476C30.2174 253.424 30.8589 246.356 30.7467 239.448C30.7467 239.016 30.7948 238.583 30.8429 238.182L30.907 237.717C31.1796 235.089 31.4522 232.444 31.741 229.817C32.3825 223.806 33.0239 217.651 33.5372 211.593C33.858 207.81 33.5051 203.547 33.1683 199.444C32.8636 195.582 32.5429 191.607 32.7513 187.984C32.8315 186.559 32.7032 185.549 32.5429 184.378C32.4466 183.721 32.3665 183.016 32.2863 182.183C32.1098 180.132 31.9975 177.343 32.1739 175.627C32.222 175.226 32.5749 174.907 32.9758 174.907C33.2646 174.939 33.457 175.034 33.6013 175.211C33.7296 175.371 33.7937 175.595 33.7777 175.804C33.6013 177.407 33.7296 180.164 33.8901 182.055C33.9542 182.839 34.0504 183.514 34.1306 184.122C34.307 185.421 34.4513 186.495 34.3551 188.081C34.1466 191.59 34.4673 195.517 34.7721 199.316C35.1089 203.499 35.4618 207.827 35.1249 211.737C34.6118 217.828 33.9702 223.998 33.3287 229.976L33.2806 230.36C33.0079 232.877 32.7513 235.393 32.4947 237.91C32.4787 238.086 32.4627 238.247 32.4306 238.423C32.3825 238.792 32.3344 239.128 32.3504 239.465C32.4627 246.485 31.8051 253.665 30.3938 260.829C28.8702 268.538 26.8976 276.087 25.3578 281.793C22.2787 293.204 19.857 305.016 18.189 316.908C17.4352 322.214 17.5636 336.462 19.6805 341.991C21.8777 347.697 22.5994 352.425 21.9739 356.865C21.7654 358.322 21.7815 359.846 21.7975 361.336C21.7975 361.785 21.7975 362.234 21.7975 362.666C21.7975 364.797 21.7975 366.946 21.7975 369.077C21.7975 372.684 21.7975 376.37 21.7654 379.992C21.7334 382.123 21.6051 384.207 20.2098 386.179C20.0815 386.355 19.9051 386.467 19.6805 386.498C19.6484 386.498 19.6163 386.498 19.5843 386.498C19.3437 386.498 19.1994 386.451 19.071 386.355C17.0022 384.88 15.6069 382.62 15.2381 380.12C15.0135 378.566 14.8371 376.979 14.6607 375.44C14.404 373.164 14.1475 370.873 13.7304 368.66C13.522 367.586 13.1531 366.513 12.7041 365.487C12.7201 366.096 12.688 366.754 12.5758 367.474C12.1427 370.391 12.1909 373.453 12.239 376.402C12.255 377.861 12.2871 379.367 12.239 380.842C12.2069 382.524 12.8484 384.142 14.2597 385.938C15.5748 387.589 16.5852 389.207 17.6758 390.938C18.2531 391.852 18.7984 392.717 19.3918 393.598C20.5626 395.346 22.8399 400.955 22.0541 402.718C21.8617 403.136 21.5089 403.424 21.0918 403.472C21.0117 403.472 20.9315 403.487 20.8513 403.487C19.9051 403.487 19.4239 402.67 19.1513 402.222C19.071 402.077 19.0229 401.981 18.9588 401.918C17.7239 400.411 16.489 398.888 15.254 397.381L14.9493 397.012C12.5116 394.016 10.0257 390.955 7.52385 387.989C5.95215 386.13 5.29459 383.069 4.76534 380.617C4.65308 380.056 4.5408 379.543 4.42853 379.079C2.53607 371.305 1.97476 364.879 2.66439 358.852C2.69646 358.596 2.69645 358.339 2.69645 358.083C2.80871 348.995 2.45588 337.311 2.11908 326.027C1.83041 316.347 1.55777 307.228 1.55777 299.727C1.55777 294.454 1.17286 289.1 0.803993 283.908V283.7C0.659654 281.808 0.515313 279.901 0.403048 278.01C-0.20639 267.929 -0.527149 254.643 2.50399 241.243C3.0974 238.647 3.16156 235.858 3.24176 233.149C3.25779 232.365 3.28985 231.595 3.32192 230.81L3.41817 228.534C3.53043 226.258 3.62664 223.934 3.62664 221.642C3.61061 213.901 3.81909 206.047 4.02759 198.466C4.20401 192.248 4.38042 185.837 4.42853 179.474C4.46061 175.612 3.67477 171.476 2.93702 167.47C2.05495 162.774 1.15683 157.95 1.46155 153.35C1.92664 146.378 3.97949 139.758 6.22479 133.027C8.80688 125.286 12.8324 117.977 24.7324 116.872C26.0154 116.759 27.2022 116.295 28.4853 115.83C28.9664 115.654 29.4315 115.477 29.9286 115.301C39.4391 112.031 49.6552 108.409 59.9676 104.05C62.4534 102.992 64.9072 101.614 67.0082 100.396C70.1195 98.6005 71.8516 95.7316 72.1723 91.885C72.4128 89.0482 72.5733 85.9711 72.6695 82.4771C72.7176 80.4416 72.7176 78.3741 72.7016 76.2104C72.7016 75.2006 72.7016 74.1589 72.7016 73.0691C72.7016 72.7324 72.91 72.444 73.2148 72.3157C73.2629 72.2998 73.4553 72.2677 73.5035 72.2677C73.728 72.2677 73.9364 72.3638 74.0969 72.5242L74.7062 73.1973C75.0271 73.5499 75.2676 73.8063 75.5081 74.0627C76.4063 74.9282 77.2723 75.8418 78.1223 76.7393C80.0149 78.7107 81.9554 80.7461 84.1365 82.3008C87.1517 84.4644 89.7979 85.4581 92.4442 85.4581C95.0904 85.4581 97.7045 84.4644 100.752 82.3489C102.788 80.9224 104.617 79.0793 106.397 77.3002C107.087 76.595 107.776 75.9059 108.482 75.2327C108.915 74.816 109.3 74.3192 109.781 73.6941C110.054 73.3415 110.342 72.9568 110.695 72.5242C110.856 72.3317 111.08 72.2196 111.321 72.2196C111.369 72.2196 111.545 72.2517 111.577 72.2677C111.914 72.3798 112.122 72.6844 112.122 73.037C112.122 74.0147 112.122 74.9443 112.106 75.8418C112.091 77.8451 112.058 79.6563 112.155 81.4192C112.315 84.7048 112.572 89.0482 113.037 93.3916C113.373 96.4368 115.041 98.8891 117.768 100.299C120.927 101.95 124.68 103.281 128.305 104.563C129.893 105.124 131.351 105.636 132.715 106.165C135.634 107.287 138.408 108.457 141.102 109.611C145.77 111.599 150.165 113.474 155.008 114.932C156.644 115.429 158.439 115.83 160.188 116.23C163.876 117.064 167.614 117.913 170.116 119.564C174.445 122.401 177.99 126.632 179.61 130.863C182.272 137.868 184.983 145.897 184.839 152.324C184.662 160.065 184.341 167.999 184.02 175.676C183.506 188.417 182.962 201.576 183.058 214.158C183.074 216.85 183.058 219.542 183.042 222.234C183.01 226.963 182.962 231.852 183.17 236.66C183.299 239.737 184.004 242.862 184.677 245.907L185.078 247.686C186.586 254.594 186.571 261.614 186.314 268.186C186.234 270.285 186.105 272.4 185.977 274.452C185.833 276.92 185.672 279.42 185.592 281.905C185.464 286.056 185.031 295.545 184.565 305.577C183.588 326.814 182.24 355.774 182.4 364.269C182.512 370.087 180.924 377.187 179.369 383.357C179.192 384.079 178.759 384.72 178.439 385.121C177.573 386.194 176.74 387.3 175.888 388.406C174.076 390.778 172.232 393.182 170.244 395.378C169.73 396.019 169.201 396.724 168.688 397.43C167.709 398.743 166.715 400.075 165.576 401.276C165.4 401.468 164.454 402.382 163.443 402.382C163.107 402.382 162.802 402.269 162.546 402.077C162.209 401.806 162.08 401.42 162.017 401.131C161.92 400.683 161.84 400.202 161.808 399.657C161.743 398.616 161.84 397.782 162.112 397.045C162.529 395.907 163.363 395.042 163.941 394.497C164.245 394.208 166.715 390.33 167.019 390.058L171.046 384.287C171.046 384.287 173.07 380.464 172.909 376.185C172.829 374.133 172.28 365.023 172.28 365.023C172.217 364.638 172.168 364.269 172.152 363.916C171.639 365.279 171.27 366.609 171.046 367.892C170.709 369.879 170.468 371.93 170.228 373.917C170.019 375.745 169.81 377.572 169.521 379.367C169.458 379.719 168.913 382.861 167.019 383.935C166.603 384.159 166.169 384.287 165.721 384.287C165.369 384.287 164.983 384.207 164.614 384.062C163.187 383.486 163.251 381.883 163.283 380.81C163.283 380.553 163.283 380.344 163.283 380.168C163.107 376.322 163.011 372.41 162.898 368.629L162.705 361.641C162.61 358.307 162.498 354.877 162.449 351.496C162.401 347.297 163.7 343.978 165.207 340.132L165.561 339.251C167.245 334.97 167.453 323.608 166.939 319.088C165.432 305.93 162.529 292.13 157.526 274.356C154.399 263.217 152.73 251.693 152.441 239.111C152.393 237.109 152.105 235.057 151.816 233.085C151.656 231.916 151.479 230.714 151.351 229.543L151.319 229.319C150.886 225.152 150.437 220.857 150.116 216.561C149.619 210.134 149.234 203.835 148.833 197.393C148.657 194.571 148.528 191.687 148.401 188.883C146.139 204.605 146.956 246.918 147.598 251.789C147.694 252.559 148.401 254.915 149.266 257.911C150.838 263.233 153.196 271.279 155.376 280.719C156.531 285.719 157.141 290.848 157.734 295.816C157.99 297.996 158.264 300.24 158.568 302.451C158.696 303.382 158.857 304.326 159.002 305.272C159.466 308.126 159.931 311.042 159.884 313.944C159.787 319.328 159.546 324.842 159.162 330.323C158.873 334.394 158.488 338.466 158.135 342.391C157.846 345.534 157.557 348.659 157.301 351.8C156.852 357.41 156.644 362.282 156.435 367.427C156.258 371.61 156.082 375.904 155.762 381.081C154.462 402.077 147.23 421.694 141.087 436.44C139.29 440.751 137.831 445.591 136.484 451.666C135.874 454.407 135.794 457.644 136.243 461.042C136.948 466.346 137.8 471.732 138.617 476.925C139.307 481.253 139.996 485.676 140.621 490.052C141.633 497.247 142.771 505.758 143.524 514.3C144.085 520.663 142.979 526.946 141.937 531.723C140.045 540.474 137.992 549.32 136.003 557.894C135.186 561.437 134.367 564.915 133.566 568.393C132.427 573.377 130.743 578.442 129.106 583.346C126.669 590.702 124.151 598.3 123.365 605.801C122.707 612.051 121.97 619.456 121.521 626.989C121.04 635.035 120.927 638.609 122.948 646.429C123.028 646.622 123.67 647.231 123.991 647.535C124.825 648.337 125.707 649.17 125.947 650.052C126.204 650.966 125.787 652.44 125.386 653.85C125.225 654.443 124.889 655.629 124.921 655.885C126.508 660.902 128.786 665.983 130.983 670.887C133.1 675.631 135.298 680.536 136.901 685.425C138.954 691.723 138.65 696.644 135.954 700.938C134.222 703.679 130.005 706.5 126.284 708.984C124.6 710.107 123.028 711.148 121.922 712.045C121.521 712.366 119.356 714 116.581 714L116.453 713.985Z" fill="black"/>
<path d="M35.3653 194.011C39.8399 208.355 41.588 251.229 41.588 251.229C41.588 251.229 34.7398 273.33 32.0295 286.072C30.1209 295.047 28.4209 307.132 28.5173 316.364C28.6135 327.118 28.1163 335.019 29.1266 345.725C30.089 355.951 29.9926 366.112 32.1257 376.161C35.638 392.686 35.4777 409.048 41.7164 424.804C44.4107 431.616 47.0569 438.475 49.4787 445.383C51.0823 449.95 51.8843 454.711 51.2107 459.599C50.5532 464.359 49.9758 469.135 49.2861 473.895C47.7946 484.202 46.1909 494.49 44.7314 504.797C43.6729 512.265 43.5767 519.749 44.6512 527.235C45.8541 535.68 47.8908 543.951 49.9918 552.204C56.2305 576.646 61.058 601.313 62.2287 626.571C62.5976 634.505 65.0354 640.419 62.8221 648.064C62.7099 648.448 62.5173 649.683 61.9561 651.013C61.3947 652.343 63.5118 655.71 63.3835 656.094C59.4703 667.761 58.0429 677.154 51.4673 687.38C48.1956 692.46 46.5437 694.094 49.7673 699.817C52.1409 704.031 57.8184 708.087 61.4268 711.388C62.5816 712.446 64.458 712.782 65.7731 713.006C69.0929 713.536 73.1504 712.493 74.7863 710.956C78.1543 707.798 78.491 704.352 80.1269 700.634C82.0354 696.274 83.8958 692.572 83.8477 687.796C83.7835 681.161 84.1525 674.51 84.3289 667.874C84.6816 654.122 85.1147 640.372 85.5316 626.635C85.8845 614.791 86.1892 602.932 86.6704 591.088C87.0071 582.641 87.5845 574.194 88.0657 565.764C88.4024 559.931 88.7714 554.096 89.0921 548.246C89.525 540.36 90.0864 532.475 90.3269 524.573C90.5676 516.753 90.4553 508.947 89.525 501.142C88.675 494.009 88.1779 486.829 87.6486 479.665C87.3921 476.203 87.2316 472.709 87.2959 469.247C87.36 465.225 87.825 461.201 88.0495 457.179C88.9638 441.264 90.0543 430.878 90.2467 410.94C90.311 405.011 90.4232 399.08 90.6798 393.167C91.0807 383.485 94.6091 360.902 90.375 357.49C89.2685 356.591 93.6789 358.547 96.6138 357.04C100.094 355.246 102.307 348.049 100.126 354.011C99.7733 354.973 97.6402 357.281 97.1109 358.595C96.4373 360.277 96.7742 362.602 96.7582 376.354C97.1911 392.637 96.7261 435.558 97.0789 451.842C97.1109 453.269 97.1751 454.679 97.2873 456.105C98.0733 466.538 97.6402 476.94 96.6459 487.358C95.8761 495.372 94.7855 503.385 94.5289 511.431C94.2563 520.118 94.6251 528.821 94.9939 537.508C95.3789 546.499 96.1647 555.491 96.7101 564.466C97.127 571.486 97.4638 578.506 97.7845 585.542C98.3619 598.412 98.9874 611.282 99.4204 624.152C99.7572 634.184 99.7893 644.234 100.03 654.266C100.302 666.047 100.735 677.81 100.912 689.591C100.96 693.053 101.778 696.146 103.638 698.983C106.028 702.606 108.241 706.997 111.032 710.314C115.314 715.379 120.077 712.462 121.36 711.436C124.921 708.568 132.796 704.352 135.216 700.522C138.087 695.969 137.798 690.921 136.083 685.696C132.844 675.807 127.246 666.047 124.103 656.126C123.83 655.26 125.482 651.574 125.129 650.276C124.792 649.058 122.339 647.472 122.13 646.653C120.093 638.768 120.189 635.162 120.687 626.972C121.12 619.889 121.793 612.804 122.531 605.736C123.862 593.09 129.908 580.621 132.747 568.232C135.553 556.019 138.473 543.823 141.119 531.578C142.338 525.952 143.188 520.166 142.69 514.397C141.985 506.303 140.926 498.24 139.804 490.179C138.441 480.499 136.709 470.866 135.425 461.169C135.009 458.013 134.992 454.614 135.682 451.521C136.836 446.313 138.279 441.088 140.333 436.168C147.711 418.489 153.757 400.185 154.96 381.066C155.681 369.397 155.698 361.848 156.5 351.767C157.076 344.603 157.846 337.455 158.359 330.291C158.745 324.857 159 319.393 159.082 313.943C159.145 310.161 158.295 306.314 157.782 302.58C156.755 295.319 156.243 288.044 154.606 280.911C151.11 265.781 147.085 254.081 146.812 251.901C146.123 246.58 145.176 193.418 148.641 184.138C150.614 178.849 152.874 174.185 149.281 184.811C149.138 185.244 149.089 185.74 149.106 186.206C149.266 189.924 149.426 193.627 149.65 197.328C150.051 203.708 150.452 210.103 150.934 216.481C151.27 220.809 151.72 225.135 152.169 229.447C152.506 232.669 153.179 235.874 153.26 239.079C153.532 250.972 155.087 262.655 158.327 274.131C162.481 288.876 166.025 303.75 167.774 318.992C168.303 323.607 168.063 335.147 166.346 339.522C164.742 343.641 163.236 347.103 163.283 351.463C163.348 356.046 163.508 360.615 163.635 365.198C163.78 370.166 163.892 375.152 164.101 380.12C164.149 381.129 163.797 382.844 164.919 383.293C167.244 384.222 168.447 380.969 168.72 379.223C169.329 375.408 169.586 371.529 170.244 367.731C170.597 365.663 171.302 363.612 172.184 361.704C172.761 360.454 174.187 359.512 176.176 359.865C176.096 360.313 175.663 360.346 175.326 360.554C173.594 361.611 172.909 363.945 172.909 363.945C172.184 368.842 176.737 376.286 171.453 385.262C171.453 385.262 164.702 393.013 163.042 397.401C162.77 398.123 162.561 398.823 162.61 399.592C162.641 400.042 162.69 400.491 162.785 400.924C162.834 401.116 162.882 401.308 163.042 401.435C163.604 401.885 164.614 401.099 164.983 400.715C166.715 398.904 168.078 396.788 169.634 394.833C172.537 391.611 175.103 388.005 177.797 384.607C178.134 384.191 178.439 383.678 178.567 383.149C179.995 377.491 181.694 370.183 181.582 364.269C181.341 351.543 184.405 294.277 184.774 281.873C184.919 277.288 185.32 272.721 185.495 268.137C185.752 261.342 185.752 254.562 184.276 247.847C183.474 244.16 182.497 240.426 182.352 236.675C182.048 229.175 182.304 221.658 182.255 214.157C182.111 193.931 183.571 172.711 184.036 152.307C184.196 145.737 181.213 137.323 178.871 131.152C177.107 126.52 173.227 122.561 169.698 120.237C166.137 117.913 159.835 117.224 154.783 115.701C147.005 113.362 140.173 109.868 132.442 106.918C127.663 105.091 121.954 103.376 117.415 101.021C114.464 99.4818 112.62 96.8373 112.251 93.4877C111.818 89.4969 111.561 85.474 111.369 81.4671C111.24 78.8387 111.337 76.1942 111.337 73.0367C110.342 74.2709 109.781 75.1363 109.059 75.8256C106.493 78.2777 104.12 81.0024 101.233 83.0218C95.0101 87.3652 89.8138 87.3331 83.7034 82.9577C80.4637 80.6497 77.8655 77.4603 74.9788 74.6556C74.5618 74.2549 74.193 73.8062 73.5354 73.1009C73.5354 76.5307 73.5995 79.5439 73.5194 82.525C73.4392 85.6823 73.2787 88.8397 73.0222 91.9811C72.7014 95.9238 70.9532 99.0972 67.4731 101.117C65.1476 102.463 62.79 103.793 60.3363 104.819C50.3126 109.05 40.4333 112.576 30.2493 116.086C28.3408 116.743 26.737 117.529 24.8766 117.705C13.5058 118.763 9.64067 125.526 7.05859 133.299C4.84536 139.95 2.80856 146.505 2.34346 153.43C1.78213 161.86 5.37462 171.044 5.31046 179.49C5.21424 193.562 4.46046 207.586 4.50858 221.658C4.50858 224.735 4.33216 227.78 4.20385 230.858C4.05951 234.399 4.15573 238.022 3.36988 241.435C0.627413 253.52 0.531205 265.701 1.28498 277.961C1.73404 285.222 2.42367 292.482 2.4397 299.743C2.4397 316.267 3.77083 341.478 3.57838 358.003C3.57838 358.322 3.57838 358.643 3.53027 358.947C2.76045 365.711 3.6746 372.347 5.27839 378.902C5.88783 381.418 6.43311 385.377 8.21331 387.492C12.0945 392.092 15.8313 396.788 19.6483 401.42C20.0011 401.853 20.2898 402.815 21.0436 402.702C22.471 402.494 20.1614 396.115 18.7983 394.064C17.0342 391.451 15.6709 388.935 13.7143 386.451C12.3832 384.784 11.469 382.957 11.5171 380.842C11.6133 376.337 11.1963 371.802 11.8539 367.377C12.2709 364.59 11.7737 362.81 9.46426 361.415C9.41615 361.384 9.49634 361.143 9.51237 360.999C11.1162 361.288 11.6294 361.368 12.303 362.65C13.2653 364.509 14.2275 366.48 14.6124 368.515C15.3341 372.298 15.5587 376.177 16.136 380.008C16.4407 382.06 17.5794 384.222 19.6483 385.698C20.9474 383.886 21.0436 381.898 21.0596 379.976C21.1238 374.206 21.0757 368.436 21.0917 362.666C21.0917 360.695 20.9955 358.691 21.2681 356.753C21.9577 351.8 20.7869 346.879 19.0068 342.279C16.8897 336.75 16.6652 322.47 17.4671 316.796C19.135 304.919 21.5247 293.172 24.652 281.584C26.5285 274.661 28.2927 267.705 29.6719 260.668C31.0512 253.697 31.7407 246.612 31.6124 239.464C31.6124 238.919 31.7088 238.359 31.7569 237.814C32.639 229.095 33.6493 220.391 34.371 211.657C34.9805 204.252 33.1521 195.437 33.6012 188.017C33.7295 185.725 33.3446 184.507 33.1362 182.102C32.9597 179.955 32.8634 177.263 33.0238 175.692" fill="white"/>
<path d="M92.2992 87.0126C88.9474 87.0126 85.4992 85.5541 81.7625 82.573C76.1491 78.0854 71.6425 72.2995 68.3708 65.3758C66.8151 62.0901 66.1576 58.3717 65.5322 54.7657L65.436 54.2207C63.768 44.6524 64.1369 34.8757 64.4896 25.4196L64.5217 24.4421C64.6821 20.0025 65.3878 14.3288 69.4132 9.79305C74.8341 3.67062 81.4256 0.417075 88.9794 0.0965298C90.2784 0.048448 91.5615 0.000366211 92.8606 0.000366211C96.421 0.000366211 101.056 0.304884 105.386 2.61281C108.032 4.03924 109.989 5.24129 111.737 6.52347C116.356 9.92126 118.986 14.5691 119.531 20.339C119.932 24.5221 120.173 28.7694 120.43 32.8724V33.1929C120.558 34.9078 120.654 36.6067 120.766 38.3216C120.269 46.8162 119.612 55.0381 117.19 63.0037C116.853 64.0935 116.516 65.2314 115.923 66.2572C113.164 71.0653 109.251 77.2038 103.462 82.0602C99.42 85.4419 95.8757 87.0285 92.2992 87.0285V87.0126Z" fill="black"/>
<path d="M119.949 38.3377C119.548 32.2954 119.291 26.2371 118.714 20.1949C118.201 14.6975 115.699 10.1297 111.24 6.82804C109.268 5.36956 107.135 4.11943 104.986 2.94944C99.9659 0.224802 94.4809 0.272883 88.996 0.497266C81.2658 0.817812 75.0431 4.26369 70.0072 10.0014C66.4468 14.0564 65.5167 19.1691 65.3241 24.2818C64.9553 34.2507 64.5222 44.2677 66.2222 54.1566C66.8638 57.9071 67.4892 61.8177 69.077 65.2155C72.1723 71.8187 76.5346 77.6686 82.244 82.2845C89.6215 88.2467 95.6197 87.9582 102.917 81.7717C108.081 77.3962 111.866 71.8828 115.186 66.0329C115.731 65.0873 116.052 63.9814 116.373 62.9236C118.794 54.91 119.42 46.6559 119.917 38.3056L119.949 38.3377Z" fill="white"/>
<path d="M111.578 119.852C119.5 119.932 127.423 120.061 135.33 120.125C135.474 120.125 135.602 120.125 135.747 120.093C136.068 120.061 136.372 120.012 136.693 119.98V119.451C136.195 119.355 135.714 119.163 135.233 119.163C127.648 119.067 120.046 118.907 112.46 118.939C109.156 118.955 105.82 119.195 102.548 119.676C99.0682 120.189 96.3258 124.18 96.6786 127.577C98.138 124.757 99.0682 121.952 102.308 120.702C104.617 119.804 107.183 119.82 109.653 119.836C110.311 119.836 110.952 119.836 111.61 119.852H111.578Z" fill="black"/>
<path d="M77.0957 120.269C79.2288 120.718 81.2174 121.631 82.6608 123.218C83.6713 124.356 84.3449 125.766 84.8099 127.209C84.8099 127.241 85.3231 126.263 85.3392 126.039C85.3713 125.51 84.7618 124.596 84.5373 124.132C83.992 123.058 83.3825 122 82.4844 121.166C80.8005 119.612 78.5872 119.227 76.358 119.211C66.4788 119.083 56.5834 119.131 46.7041 119.131C46.2069 119.131 45.6936 119.307 45.1965 119.387C45.1965 119.564 45.2126 119.74 45.2286 119.916C45.7098 120.349 48.4522 119.932 49.0616 119.932C51.8682 119.932 54.6748 119.948 57.4815 119.964C62.8862 119.981 68.3231 119.708 73.7118 119.852C74.8344 119.884 75.9892 119.997 77.1118 120.237L77.0957 120.269Z" fill="black"/>
<path d="M104.922 471.94C107.504 474.264 111.658 485.595 111.144 489.009C110.038 485.691 109.14 482.838 108.113 480.034C107.119 477.309 105.756 474.729 104.922 471.94Z" fill="black"/>
<path d="M120.526 488.625C120.045 485.916 125.514 473.046 127.519 471.636C125.113 477.469 122.82 483.047 120.526 488.625Z" fill="black"/>
<path d="M62.6943 488.625C60.4007 483.064 58.1073 477.486 55.7177 471.716C57.6904 472.981 63.1112 485.627 62.6943 488.625Z" fill="black"/>
<path d="M75.2191 488.8C74.9625 485.066 79.2126 473.751 81.7145 471.651C79.5173 477.469 77.4325 482.95 75.2191 488.8Z" fill="black"/>
<path d="M14.3077 242.254C16.7615 246.677 18.9747 250.684 21.1238 254.578C19.0549 254.049 14.6124 246.468 14.3077 242.254Z" fill="black"/>
<path d="M169.762 242.877C168.416 247.429 165.625 251.468 162.498 255.027C162.353 254.946 162.209 254.866 162.065 254.801C164.294 250.779 166.523 246.757 168.736 242.733C168.897 242.782 169.603 242.83 169.762 242.877Z" fill="black"/>
<path d="M48.196 293.379C46.079 289.71 43.978 286.023 41.7488 282.145C43.529 282.77 48.0356 290.191 48.645 293.107C48.5007 293.204 48.3564 293.284 48.196 293.379Z" fill="black"/>
<path d="M139.227 293.027C140.013 290.383 145.241 282.481 146.363 281.841C143.99 286.007 141.872 289.693 139.756 293.396C139.579 293.267 139.403 293.155 139.227 293.027Z" fill="black"/>
<path d="M95.4275 256.997V266.197C95.235 266.197 95.0586 266.197 94.8662 266.197C94.4813 263.136 94.6577 260.075 94.6096 256.997C94.8823 256.997 95.1549 256.982 95.4114 256.965L95.4275 256.997Z" fill="black"/>
<path d="M55.0925 193.562C54.8038 193.546 54.5311 193.53 54.2425 193.498C45.8868 192.921 39.4556 189.075 36.0074 181.285C34.099 176.99 33.0885 172.454 32.3188 167.838C32.2547 167.486 32.1103 167.15 31.6292 166.764C31.5168 167.133 31.2442 167.518 31.2923 167.855C32.3669 173.769 33.7621 179.539 36.649 184.956L38.7179 187.68C44.7962 194.108 52.0934 195.133 59.8557 194.571C60.2246 194.539 59.7114 193.899 59.6793 193.867C59.4708 193.674 58.268 193.771 57.9633 193.754C57.0009 193.69 56.0387 193.627 55.0764 193.562H55.0925Z" fill="black"/>
<path d="M153.806 166.652C153.323 167.036 153.18 167.374 153.116 167.726C152.329 172.325 151.335 176.877 149.427 181.173C146.684 187.344 141.504 191.927 134.768 193.194C134.015 193.338 125.45 193.834 125.434 193.802C125.482 194.026 125.53 194.235 125.578 194.459C133.341 195.02 140.654 193.994 146.716 187.568L148.785 184.844C151.672 179.425 153.051 173.655 154.142 167.742C154.205 167.405 153.933 167.021 153.806 166.652Z" fill="black"/>
<path d="M125.499 324.505C119.869 327.118 113.47 330.082 107.921 334.233C105.66 335.916 104.28 337.951 103.719 340.452L103.591 340.981C102.981 343.657 102.372 346.318 101.779 348.995C101.057 352.28 99.3408 354.861 96.7106 356.639C94.5455 358.098 92.2361 358.114 90.0389 356.688C87.4087 354.988 85.6927 352.425 84.9229 349.075L84.57 347.489C84.0246 345.084 83.4794 342.696 82.9181 340.307C82.3567 337.951 81.0738 336.044 78.9888 334.442C73.4398 330.194 67.1209 327.278 61.0105 324.456C60.9622 324.456 60.8179 324.505 60.6736 324.553C60.6095 324.568 60.5293 324.601 60.4331 324.633C60.6095 324.745 60.786 324.842 60.9463 324.937C61.4595 325.242 61.8605 325.467 62.2774 325.676C63.4001 326.252 64.5227 326.812 65.6454 327.39C67.8104 328.48 70.0397 329.618 72.2048 330.771C73.2472 331.332 74.2577 331.974 75.236 332.599C75.7813 332.951 76.3266 333.287 76.8718 333.625C80.1595 335.628 82.1643 338.529 82.8219 342.247C83.0303 343.401 83.287 344.555 83.5436 345.693C83.7681 346.687 84.0086 347.713 84.1851 348.739C84.7784 351.847 87.6492 356.32 90.6323 357.617C92.236 358.322 95.556 358.708 97.6087 356.768C100.255 354.748 101.923 351.976 102.564 348.53C102.773 347.424 103.014 346.302 103.254 345.228C103.495 344.107 103.751 342.952 103.96 341.814C104.585 338.417 106.43 335.772 109.429 333.945C112.909 331.83 115.988 330.019 118.843 328.431C120.062 327.758 121.345 327.15 122.58 326.573C123.333 326.219 124.071 325.868 124.809 325.499C125.13 325.338 125.434 325.13 125.851 324.825C125.964 324.745 126.092 324.665 126.22 324.568C126.14 324.568 126.076 324.568 126.012 324.553C125.739 324.521 125.579 324.505 125.499 324.553V324.505Z" fill="black"/>
</g>
<defs>
<clipPath id="clip0_218_41">
<rect width="187" height="714" fill="white"/>
</clipPath>
</defs>
</svg>
