<svg width="187" height="705" viewBox="0 0 187 705" fill="none" xmlns="http://www.w3.org/2000/svg">
<path d="M186.472 159.648C187.359 153.895 185.812 146.579 184.378 141.454C182.751 135.669 180.657 130.529 179.626 128.483C177.902 124.422 175.711 121.682 172.941 120.119C170.589 118.798 168.253 118.604 166.561 118.475H166.304C162.631 118.153 145.073 113.109 140.03 110.95C115.19 101.055 114.159 97.8808 113.08 94.529C112.774 93.6104 112.613 83.3776 112.484 75.9165C112.484 75.9004 112.484 75.8843 112.484 75.8521C113.37 74.8207 114.063 73.7249 114.739 72.6774C114.9 72.4196 115.061 72.1618 115.223 71.9201C116.592 69.8091 117.897 65.9254 118.96 60.6721C119.105 59.963 119.25 59.2217 119.379 58.4643C119.636 58.5932 119.862 58.6416 120.087 58.6416C120.248 58.6416 120.41 58.6094 120.538 58.5772C123.164 57.723 125.194 49.15 126.128 42.0757C126.644 38.1759 125.468 36.2583 124.195 35.7588C123.341 35.4203 122.391 35.6783 121.602 36.4034C121.859 27.9271 121.408 19.209 119.556 14.7614C117.059 8.78285 111.856 5.26985 107.941 3.38444C103.495 1.25731 98.1953 0.000366211 93.7493 0.000366211C88.4978 0.000366211 83.0369 1.43457 78.3653 3.99679C73.9031 6.44622 70.5042 9.68528 68.8128 13.1338C65.7681 19.3379 65.7681 27.7176 65.7521 35.1303C65.7521 35.5654 65.7521 36.0167 65.7521 36.4517C64.9466 35.6943 63.9962 35.4365 63.1264 35.7749C61.8537 36.2745 60.6778 38.1921 61.1933 42.0919C62.1275 49.1823 64.1573 57.7553 66.783 58.5932C66.9119 58.6415 67.0569 58.6577 67.2341 58.6577C67.4595 58.6577 67.7012 58.6094 67.959 58.4643C68.7966 62.9604 70.1498 68.6005 71.9379 71.4205C72.389 72.1296 73.9515 74.5306 75.2724 76.0615C75.1436 83.5065 74.9664 93.6265 74.6763 94.545C73.5809 97.8969 72.5662 101.071 47.71 110.966C42.668 113.125 24.8193 118.169 21.1465 118.475H20.8888C19.1812 118.636 16.8454 118.83 14.5097 120.151C11.7389 121.698 9.5642 124.438 7.82443 128.515C6.80958 130.561 4.69931 135.702 3.07232 141.487C1.63863 146.612 0.108275 153.928 0.978156 159.68C2.44406 169.285 3.82943 178.374 3.97441 181.242C4.07106 183.289 4.07106 201.111 4.05496 210.683C4.05496 214.212 4.05496 216.758 4.05496 217.387C4.07106 219.998 4.29658 234.952 4.48989 238.594C4.57044 239.98 4.6832 241.349 4.77986 242.687C4.95705 244.943 5.11815 247.071 5.15036 249.197C5.18258 251.002 4.08717 259.768 3.47503 262.056C1.02648 271.227 1.47753 280.122 1.92858 288.71C1.99301 289.839 2.04134 291.015 2.08967 292.142C2.28298 296.558 2.91122 304.374 3.55558 312.673C4.29658 322.133 5.06982 331.897 5.15036 335.991C5.19869 338.456 1.18757 366.786 0.92983 368.172C0.639869 369.622 1.67084 384.093 2.36353 386.189C2.47629 386.542 5.42422 394.729 7.37339 397.42C9.11316 399.822 16.5876 408.137 18.5207 409.522L18.7624 409.699L18.9718 409.474C20.1638 408.217 20.6794 406.911 20.6954 405.59C21.7265 403.753 21.5169 401.464 20.0994 398.966C18.9395 396.92 17.2159 395.181 16.0722 394.294C15.75 393.681 15.1378 392.376 14.5097 391.023C13.5431 388.944 12.4316 386.574 11.8839 385.672C11.6745 384.561 11.5456 382.933 11.4006 381.224C11.1751 378.598 10.9335 375.617 10.3535 373.796C10.8851 371.218 11.7711 369.429 12.2383 368.59C12.9953 367.253 13.5914 366.818 13.7847 366.769C15.4117 370.508 15.2023 373.103 15.0251 375.391C14.9768 375.955 14.9446 376.471 14.9284 376.987C14.9284 377.422 14.8479 378.082 14.7674 378.936C14.413 382.578 13.817 388.685 15.8788 391.135C16.4266 391.78 17.1193 392.134 17.9569 392.199C18.698 392.247 19.3746 391.989 19.9384 391.442C22.4675 388.944 22.403 380.757 22.1291 376.116C22.1291 376.02 22.1291 375.955 22.1291 375.906C22.0969 375.182 22.3063 372.99 23.5306 366.673C24.6583 360.839 24.4488 355.457 22.9184 351.123C22.4513 349.801 23.6112 343.387 23.5145 340.826C23.289 337.393 31.6495 306.34 32.4872 302.81C32.745 301.699 33.6632 300.2 34.0981 298.476C35.9022 291.225 36.9654 280.25 37.336 275.109C37.8031 268.632 34.8551 248.52 34.7424 247.666C34.6297 246.877 36.7399 241.511 37.1426 236.79C37.4326 233.486 37.7064 230.359 37.787 228.748C37.932 225.718 38.5763 206.365 38.834 195.729C39.6557 203.013 39.2206 210.91 40.01 216.049C40.3 217.919 40.5256 219.385 40.6544 220.32C41.2021 224.349 41.2504 264.49 41.1054 271.242C41.041 274.594 40.7349 277.237 40.7993 278.397C40.9122 280.412 40.4611 287.501 39.1079 293.77C37.9963 298.928 36.1277 303.794 35.854 305.357C35.4512 307.71 34.8391 313.608 34.2913 318.829C34.0176 321.504 33.7597 324.034 33.5343 325.952C33.051 330.125 32.6643 344.935 32.2617 350.316C32.0683 353.008 29.9742 360.679 30.9246 370.444C32.1328 382.837 33.9531 394.487 36.3371 405.042C41.7337 428.924 44.7944 440.285 46.1314 444.926C46.5986 446.554 50.7224 461.041 51.2862 471.112C51.7856 480.072 51.093 498.604 50.5935 505.63C50.513 506.839 50.4003 508.16 50.3036 509.578C49.8042 515.976 49.1921 523.919 49.4981 528.867C49.8848 535.281 51.254 547.625 53.7992 561.29C54.7658 566.479 56.425 575.246 58.1809 584.511C61.2093 600.449 64.3345 616.934 64.6244 618.965C65.0111 621.688 70.4237 638.673 68.861 648.487C68.5711 649.631 68.265 650.613 67.959 651.564C67.0246 654.465 66.2836 656.753 67.5885 660.701C68.1362 662.974 67.2341 669.968 65.897 672.207V672.239C63.1263 678.201 57.4559 683.681 54.0731 686.953C53.0099 687.967 52.1722 688.789 51.7051 689.337C51.2218 689.466 50.6097 689.594 49.917 689.756C46.4052 690.53 41.0732 691.706 41.0732 695.041C41.0732 695.815 41.5403 696.572 42.4263 697.249C44.3916 698.748 48.0966 699.602 50.3036 699.07C55.0074 701.52 59.389 701.229 62.3047 701.036C62.7074 701.004 63.078 700.988 63.4163 700.971C66.0582 700.859 66.2514 700.988 66.8635 701.406C67.2341 701.665 67.7496 702.003 68.8288 702.438C71.2452 703.406 75.5624 703.776 78.1236 703.776C78.7841 703.776 79.3319 703.759 79.7023 703.711H79.7506C83.7619 703.711 86.7259 702.777 88.5783 700.939C90.8013 698.716 90.8175 695.751 90.8175 694.462C91.1074 692.206 90.302 684.615 89.5127 677.267C89.0133 672.643 88.5461 668.275 88.3367 665.23C88.6588 663.473 89.6577 656.383 89.3355 653.692C88.4656 646.714 88.2079 639.64 88.1434 622.138C88.095 605.831 88.6588 589.893 88.8522 585.59C88.9167 584.141 89.3677 576.567 89.8832 567.785C90.6243 554.989 91.5585 539.051 91.623 537.022C91.7357 533.653 91.3329 514.639 91.1557 511.045C90.9464 506.887 90.4147 494.607 90.5276 491.9C90.5759 490.74 90.9464 488.081 91.3813 485.02C91.9774 480.732 92.6701 475.883 92.815 472.724C92.9761 469.276 92.1546 458.511 91.6552 452.097C91.5101 450.26 91.3974 448.794 91.3329 447.907C91.0752 444.039 90.157 410.376 90.2215 406.959C90.2537 405.283 90.6081 394.89 90.9625 384.835C91.2846 375.681 91.5746 367.028 91.6068 365.593C91.6068 364.965 91.6068 364.369 91.623 363.804C91.6552 362.258 91.6713 360.921 91.5585 359.889C92.2835 359.293 92.9761 358.633 93.6043 357.939C94.4098 358.471 95.2313 358.971 96.0528 359.438C95.9401 360.502 95.9563 362.113 95.9885 363.804C95.9885 364.385 96.0045 364.998 96.0045 365.61C96.0368 367.044 96.3267 375.698 96.649 384.851C97.0034 394.906 97.3578 405.3 97.39 406.976C97.4543 410.393 96.5361 444.056 96.2784 447.923C96.214 448.81 96.1012 450.26 95.9563 452.114C95.4569 458.543 94.6192 469.291 94.7964 472.739C94.9414 475.898 95.6341 480.749 96.2301 485.035C96.665 488.097 97.0356 490.74 97.0839 491.916C97.1966 494.624 96.665 506.903 96.4556 511.06C96.2784 514.654 95.8918 533.67 95.9885 537.037C96.0528 539.085 96.9872 555.006 97.7282 567.817C98.2437 576.583 98.6786 584.156 98.7591 585.607C98.9525 589.893 99.5163 605.831 99.4679 622.155C99.4196 639.655 99.1459 646.729 98.2759 653.707C97.9376 656.398 98.9525 663.489 99.2747 665.245C99.0652 668.307 98.5981 672.674 98.0988 677.284C97.3094 684.631 96.4878 692.221 96.7939 694.477C96.7939 695.766 96.7939 698.731 99.033 700.956C100.886 702.792 103.85 703.728 107.861 703.728H107.909C108.28 703.776 108.827 703.792 109.488 703.792C112.049 703.792 116.382 703.437 118.783 702.455C119.878 702.02 120.377 701.681 120.748 701.423C121.376 701.004 121.569 700.876 124.195 700.988C124.533 700.988 124.904 701.02 125.307 701.053C128.222 701.246 132.605 701.536 137.308 699.086C137.759 699.2 138.258 699.248 138.806 699.248C140.948 699.248 143.622 698.458 145.184 697.265C146.071 696.588 146.538 695.831 146.538 695.058C146.538 691.722 141.222 690.545 137.694 689.773C137.002 689.611 136.389 689.482 135.906 689.353C135.455 688.805 134.602 687.983 133.538 686.968C130.156 683.697 124.485 678.218 121.73 672.256V672.223C120.361 669.999 119.475 662.989 120.007 660.717C121.296 656.769 120.571 654.481 119.636 651.58C119.33 650.63 119.024 649.663 118.734 648.502C118.332 635.868 122.471 617.981 122.858 615.258C123.148 613.228 126.322 600.754 128.592 584.528C129.914 575.181 132.845 566.496 133.812 561.306C136.357 547.641 137.711 535.297 138.113 528.884C138.419 523.936 137.808 515.976 137.308 509.594C137.196 508.192 137.099 506.871 137.018 505.645C136.519 498.636 138.838 480.089 139.338 471.128C139.901 461.073 142.382 446.569 142.849 444.942C143.654 442.155 145.363 432.856 147.908 421.736C149.905 413.003 157.412 381.466 158.619 369.074C159.571 359.308 161.761 351.961 161.841 349.254C161.986 343.759 160.811 329.981 159.828 325.662C159.426 323.906 158.379 321.311 157.702 318.571C156.445 313.478 154.206 309.305 153.803 306.952C153.53 305.373 151.564 298.911 150.452 293.755C149.1 287.501 147.57 280.395 147.263 278.413C147.086 277.22 146.715 274.578 146.265 271.242C145.346 264.538 148.085 224.349 148.648 220.32C148.777 219.401 149.003 217.919 149.293 216.049C150.082 210.941 147.988 203.125 148.81 195.874C149.067 206.526 149.695 225.718 149.84 228.732C149.921 230.343 150.195 233.47 150.485 236.773C150.887 241.494 151.354 246.861 151.242 247.65C151.113 248.505 150.646 268.632 151.113 275.094C151.484 280.234 155.849 291.208 157.654 298.459C158.089 300.184 158.442 301.666 158.716 302.778C159.554 306.324 166.803 337.36 166.578 340.792C166.497 342.792 165.386 348.35 164.419 351.09C162.888 355.426 162.663 360.807 163.807 366.641C165.031 372.941 165.241 375.134 165.209 375.875C165.209 375.923 165.209 375.988 165.209 376.084C164.934 380.741 164.87 388.912 167.399 391.409C167.963 391.974 168.623 392.231 169.38 392.167C170.218 392.102 170.91 391.747 171.459 391.103C173.537 388.654 172.924 382.547 172.57 378.904C172.489 378.051 172.425 377.374 172.409 376.955C172.409 376.438 172.361 375.906 172.312 375.359C172.135 373.071 171.925 370.476 173.553 366.737C173.746 366.786 174.342 367.221 175.099 368.559C175.583 369.397 176.453 371.17 176.983 373.763C176.405 375.584 176.163 378.566 175.936 381.193C175.791 382.9 175.663 384.528 175.453 385.64C174.89 386.542 173.794 388.895 172.827 390.99C172.184 392.361 171.587 393.65 171.265 394.262C170.122 395.147 168.398 396.888 167.238 398.935C165.821 401.433 165.611 403.721 166.642 405.558C166.642 406.896 167.158 408.2 168.366 409.441L168.575 409.667L168.816 409.489C170.75 408.103 178.24 399.789 179.964 397.387C181.913 394.697 184.862 386.494 184.974 386.156C185.667 384.077 186.682 369.606 186.407 368.14C186.134 366.754 182.139 338.424 182.188 335.959C182.268 331.882 183.041 322.1 183.782 312.641C184.443 304.358 185.055 296.526 185.248 292.111C185.297 290.967 185.36 289.806 185.425 288.678C185.86 280.073 186.327 271.193 183.878 262.025C183.266 259.753 182.188 250.97 182.203 249.165C182.236 247.038 182.413 244.911 182.574 242.655C182.671 241.318 182.783 239.948 182.864 238.561C183.073 234.936 183.283 219.965 183.298 217.355C183.298 216.726 183.298 214.18 183.298 210.651C183.298 201.079 183.298 183.272 183.38 181.226C183.525 178.357 184.91 169.285 186.375 159.665L186.472 159.648Z" fill="black"/>
<path d="M121.553 37.5151C122.246 36.5321 123.148 36.097 123.937 36.4031C124.92 36.7899 125.887 38.4658 125.436 41.9789C124.292 50.6163 122.149 57.32 120.329 57.9C120.216 57.9324 119.926 58.029 119.524 57.7067C120.249 53.533 120.828 48.8276 121.199 43.9449C121.36 41.8822 121.489 39.7228 121.569 37.5151H121.553Z" fill="white"/>
<path d="M67.0087 57.9002C65.1884 57.3201 63.0298 50.6163 61.9022 41.9789C61.4351 38.4821 62.4176 36.7899 63.4003 36.4032C64.1735 36.097 65.0756 36.5161 65.7684 37.499C65.7684 41.8339 66.4127 48.8598 67.3953 55.0641C67.5241 55.8536 67.6692 56.7399 67.8302 57.6906C67.4114 58.0291 67.1215 57.9324 67.0087 57.9002Z" fill="white"/>
<path d="M26.0274 173.475C27.5094 179.647 35.6927 185.367 38.2541 190.041C38.2058 196.518 37.2876 224.945 37.1104 228.667C37.0298 230.263 36.7559 233.388 36.466 236.692C35.9344 242.832 33.953 246.926 34.0657 247.731C34.1947 248.585 37.1264 268.632 36.6593 275.029C36.2888 280.105 35.2256 291.047 33.4375 298.266C33.0026 299.99 32.0844 301.489 31.8267 302.602C30.989 306.147 22.6284 337.329 22.854 340.826C22.9506 342.92 21.2914 348.48 22.3062 351.315C23.8044 355.538 24.0137 360.791 22.9023 366.496C21.9036 371.62 21.4363 374.779 21.4847 375.891C21.4847 375.939 21.4847 376.003 21.4847 376.1C21.9196 383.819 21.1947 389.201 19.5034 390.893C19.0844 391.312 18.6173 391.49 18.0696 391.457C17.4252 391.409 16.9098 391.152 16.4748 390.652C14.5901 388.428 15.2022 382.288 15.5245 378.985C15.605 378.114 15.6693 377.437 15.6855 376.987C15.6855 376.487 15.7338 375.971 15.7822 375.423C15.9594 373.135 16.1849 370.299 14.429 366.351L14.3967 366.286L14.3485 366.237C14.1552 366.045 13.8974 365.997 13.6074 366.077C12.3993 366.447 10.4984 369.671 9.67687 373.715V373.812V373.908C10.2568 375.633 10.4984 378.63 10.7078 381.257C10.8528 383.029 10.9978 384.69 11.2072 385.85V385.914L11.2555 385.979C11.771 386.784 12.8987 389.185 13.8813 391.297C14.5739 392.794 15.17 394.068 15.5083 394.68L15.5405 394.745L15.605 394.794C16.7004 395.631 18.3756 397.307 19.5034 399.305C20.2444 400.594 20.9209 402.383 20.5343 404.091C19.8416 401.142 17.1675 398.096 14.6868 395.309H14.6706C14.0585 392.956 12.4959 390.249 11.3522 388.25C10.7562 387.219 10.2246 386.317 10.0957 385.882C10.0635 384.56 9.61244 377.647 8.22707 375.149L7.61494 375.488C8.85532 377.744 9.3708 384.286 9.40302 385.946V385.994V386.042C9.54801 386.542 10.0474 387.413 10.7401 388.622C11.8838 390.603 13.4463 393.311 14.0101 395.551V395.631L14.1552 395.776C18.0857 400.224 22.1451 404.816 18.6979 408.749C18.2146 408.345 17.4897 407.668 16.652 406.814C17.6346 405.365 17.828 403.544 17.2158 401.626C16.5392 399.515 14.9445 397.42 12.5926 395.551C12.0932 394.794 11.6905 393.681 11.2717 392.504C10.6112 390.668 9.85408 388.573 8.43649 386.864C8.48482 384.093 7.96933 377.374 6.55175 374.134C8.61368 373.28 9.45135 370.138 10.6112 367.108C11.1589 365.658 11.6905 364.273 12.2704 363.272C12.5282 362.822 12.8182 362.37 13.1403 361.871C14.9928 358.97 17.2802 355.376 15.7822 348.625L15.0895 348.77C16.5232 355.232 14.3162 358.696 12.5443 361.484C12.2382 361.968 11.9321 362.435 11.6583 362.902C11.0461 363.949 10.5145 365.352 9.95072 366.851C8.83921 369.767 7.93711 373.086 5.97183 373.586L5.553 373.698L5.7463 374.085C7.22832 377.067 7.80825 384.334 7.7277 386.994V387.123L7.80825 387.219C9.19361 388.847 9.95072 390.91 10.5951 392.731C11.0461 393.972 11.465 395.131 12.0288 395.97L12.061 396.018L12.1093 396.05C14.3807 397.855 15.911 399.853 16.5392 401.835C17.0708 403.479 16.9259 405.058 16.1366 406.299C13.1886 403.237 9.09696 398.596 7.93711 396.985C6.05237 394.39 3.13665 386.284 3.0239 385.946C2.73393 385.092 2.33122 381.531 1.97682 376.873C1.65464 372.587 1.49355 368.897 1.60631 368.3C1.89627 366.834 5.89128 338.601 5.84295 335.958C5.76241 331.849 4.98919 322.068 4.24817 312.609C3.61993 304.696 2.97557 296.493 2.78226 292.111C2.73393 290.967 2.6695 289.806 2.62117 288.662C2.18624 280.122 1.73519 271.29 4.15152 262.218C4.76366 259.897 5.87517 251.002 5.84295 249.165C5.81074 247.021 5.63354 244.878 5.45635 242.622C5.35969 241.284 5.24693 239.915 5.16638 238.546C4.95697 234.919 4.74755 219.982 4.73143 217.387C4.73143 216.758 4.73143 214.212 4.73143 210.7C4.73143 200.45 4.73143 183.304 4.6509 181.226C4.52202 178.518 3.37829 170.912 1.65464 159.6C0.0115319 148.835 6.69673 132.35 8.43649 128.837C12.206 119.942 17.4414 119.506 20.9209 119.232H21.1786C24.5132 118.926 39.5749 115.236 47.9516 111.659C59.099 107.211 66.1546 103.875 70.1335 101.152C73.8387 98.6219 74.6762 96.7848 75.3045 94.8027C75.6106 93.852 75.7717 86.0686 75.9489 75.9969C76.0134 72.1294 76.0777 68.7937 76.1422 67.1499L75.4334 67.1177C75.369 68.6326 75.3207 71.5653 75.2562 75.03C74.0964 73.5636 72.8882 71.7104 72.5016 71.098C68.8609 65.3935 66.3802 45.8141 66.4124 37.3862C66.4124 36.6611 66.4124 35.9358 66.4124 35.1946C66.4124 27.8624 66.4124 19.5634 69.3925 13.5204C71.0034 10.2491 74.3702 7.04229 78.6391 4.68955C83.214 2.19177 88.5622 0.789795 93.6849 0.789795C93.7009 0.789795 93.717 0.789795 93.7331 0.789795C101.143 0.789795 114.465 4.67342 118.815 15.1157C119.829 17.5329 120.49 21.6583 120.748 27.0406C120.989 32.0522 120.877 37.9018 120.409 43.977C119.427 56.7882 117.123 67.6333 114.53 71.6137C114.369 71.8715 114.208 72.1294 114.03 72.3872C113.515 73.2091 112.967 74.0471 112.355 74.8527C112.291 71.4847 112.242 68.6326 112.194 67.1499L111.485 67.1822C111.55 68.8259 111.598 72.1616 111.678 76.0291C111.856 86.1169 112.001 93.9003 112.323 94.8349C112.967 96.817 113.789 98.6541 117.494 101.184C121.473 103.907 128.529 107.243 139.676 111.691C148.052 115.268 162.84 118.975 166.159 119.249H166.416C169.88 119.555 175.131 119.974 178.9 128.853C180.641 132.382 187.326 148.867 185.682 159.632C183.96 170.945 182.815 178.551 182.686 181.258C182.59 183.32 182.59 200.482 182.606 210.731C182.606 214.26 182.606 216.807 182.606 217.419C182.59 220.013 182.364 234.967 182.171 238.578C182.091 239.947 181.994 241.333 181.881 242.655C181.704 244.911 181.543 247.054 181.494 249.197C181.463 251.035 182.574 259.93 183.186 262.25C185.602 271.307 185.152 280.137 184.717 288.694C184.652 289.822 184.603 290.998 184.538 292.142C184.345 296.542 183.701 304.728 183.073 312.641C182.333 322.1 181.559 331.897 181.478 335.991C181.429 338.633 185.425 366.866 185.715 368.333C185.827 368.929 185.682 372.619 185.345 376.905C184.99 381.579 184.587 385.14 184.297 385.979C184.185 386.317 181.269 394.422 179.384 397.017C178.224 398.628 174.133 403.269 171.185 406.331C170.395 405.09 170.25 403.527 170.782 401.868C171.41 399.885 172.941 397.887 175.211 396.083L175.26 396.05L175.293 396.001C175.856 395.164 176.275 394.003 176.726 392.763C177.387 390.942 178.127 388.879 179.514 387.251L179.609 387.154V387.026C179.529 384.366 180.109 377.099 181.591 374.118L181.784 373.731L181.366 373.618C179.4 373.119 178.498 369.816 177.387 366.883C176.823 365.4 176.291 363.998 175.68 362.935C175.405 362.467 175.115 362 174.793 361.516C173.021 358.728 170.798 355.264 172.247 348.802L171.555 348.657C170.057 355.409 172.344 359.003 174.198 361.903C174.503 362.387 174.793 362.838 175.066 363.305C175.646 364.304 176.163 365.69 176.726 367.141C177.887 370.186 178.724 373.328 180.786 374.167C179.352 377.405 178.852 384.126 178.9 386.897C177.483 388.605 176.726 390.683 176.066 392.537C175.646 393.713 175.244 394.809 174.745 395.583C172.392 397.452 170.798 399.563 170.122 401.658C169.51 403.576 169.718 405.397 170.685 406.847C169.848 407.701 169.123 408.394 168.64 408.78C165.192 404.848 169.252 400.256 173.182 395.808L173.311 395.663V395.583C173.891 393.326 175.453 390.62 176.597 388.654C177.29 387.445 177.79 386.574 177.935 386.075V386.027V385.979C177.967 384.319 178.465 377.776 179.722 375.519L179.11 375.182C177.725 377.696 177.273 384.593 177.242 385.914C177.113 386.349 176.581 387.251 175.985 388.283C174.841 390.265 173.263 392.988 172.667 395.309H172.651C170.17 398.129 167.496 401.159 166.803 404.108C166.416 402.4 167.093 400.627 167.834 399.321C168.962 397.339 170.637 395.648 171.732 394.809L171.797 394.761L171.829 394.697C172.151 394.1 172.764 392.811 173.456 391.312C174.439 389.201 175.55 386.801 176.082 385.994L176.115 385.93V385.865C176.34 384.721 176.485 383.045 176.63 381.273C176.855 378.63 177.097 375.649 177.66 373.925L177.693 373.828V373.731C176.855 369.686 174.954 366.464 173.746 366.092C173.456 366.012 173.199 366.06 173.006 366.254L172.957 366.302L172.924 366.367C171.169 370.331 171.394 373.168 171.572 375.439C171.62 375.988 171.652 376.503 171.669 377.002C171.669 377.454 171.749 378.147 171.829 379.001C172.151 382.305 172.764 388.444 170.879 390.668C170.46 391.167 169.928 391.442 169.283 391.474C168.736 391.505 168.269 391.329 167.85 390.91C166.143 389.217 165.417 383.836 165.869 376.116C165.869 376.02 165.869 375.955 165.869 375.906C165.917 374.795 165.45 371.62 164.451 366.512C163.34 360.807 163.549 355.554 165.047 351.332C166.046 348.495 167.158 342.92 167.238 340.841C167.463 337.344 160.198 306.179 159.361 302.617C159.103 301.506 158.732 300.007 158.297 298.283C156.51 291.047 152.144 280.122 151.774 275.045C151.306 268.647 151.774 248.6 151.903 247.746C152.016 246.926 151.677 242.848 151.146 236.708C150.856 233.405 150.581 230.295 150.501 228.683C150.307 224.961 149.405 196.648 149.357 190.089C156.204 184.062 154.738 177.245 156.38 173.475C157.025 171.975 162.615 160.986 162.615 160.986C162.615 164.95 155.478 172.443 155.414 173.313C154.931 180.387 151.951 186.317 148.665 189.863L148.632 189.928V190.008C147.94 198.516 149.55 209.41 148.552 215.921C148.262 217.79 148.037 219.273 147.907 220.19C147.36 224.203 144.604 264.619 145.523 271.307C145.99 274.642 146.345 277.285 146.521 278.478C146.828 280.492 148.294 287.293 149.712 293.867C150.823 299.008 152.031 303.874 152.305 305.437C152.853 308.644 155.269 313.64 156.477 317.636C157.299 320.375 159.006 326.015 159.216 327.933C159.716 332.317 161.455 344.144 160.778 349.543C157.46 376.165 142.607 441.993 142.124 444.7C141.819 446.36 139.16 460.896 138.596 471.032C138.098 480.007 135.777 498.604 136.277 505.63C136.357 506.838 136.471 508.175 136.567 509.578C137.049 515.943 137.663 523.871 137.372 528.77C136.986 535.168 135.616 547.48 133.087 561.113C132.121 566.301 129.639 575.068 127.884 584.333C124.855 600.287 121.73 616.772 121.44 618.82C120.909 622.59 116.543 639.22 118.025 648.567L118.476 650.161C118.766 651.339 118.654 650.807 118.944 651.725C119.878 654.609 120.538 656.705 119.314 660.427V660.459C118.718 662.86 119.636 670.08 121.07 672.497C123.873 678.573 129.591 684.099 133.023 687.42C134.118 688.482 134.989 689.321 135.391 689.82L135.455 689.901L135.567 689.933C136.084 690.078 136.744 690.223 137.501 690.385C140.803 691.11 145.781 692.206 145.781 694.977C145.781 695.67 145.201 696.25 144.701 696.62C142.865 698.023 139.273 698.828 137.308 698.296L137.179 698.264L137.049 698.329C132.475 700.762 128.157 700.472 125.307 700.279C124.904 700.247 124.517 700.231 124.179 700.214C121.424 700.102 121.102 700.231 120.297 700.778C119.942 701.004 119.475 701.326 118.46 701.745C115.561 702.905 109.568 703.164 107.909 702.954H107.893H107.877C104.027 702.954 101.192 702.1 99.4678 700.392C97.4382 698.361 97.4382 695.573 97.4382 694.397V694.349C97.1482 692.221 97.9537 684.631 98.743 677.299C99.2423 672.643 99.7095 668.259 99.9189 665.182V665.133V665.085C99.629 663.489 98.598 656.302 98.9202 653.707C99.7901 646.698 100.064 639.607 100.112 622.075C100.161 605.75 99.5967 589.796 99.4035 585.494C99.339 584.044 98.888 576.47 98.3724 567.703C97.6314 554.909 96.6972 538.971 96.6327 536.94C96.536 533.573 96.9228 514.606 97.0998 511.012C97.2288 508.434 97.857 494.752 97.7281 491.804C97.6798 490.595 97.3093 487.936 96.8744 484.858C96.3105 480.797 95.5856 475.753 95.4406 472.627C95.2796 469.211 96.1011 458.494 96.6005 452.081C96.7455 450.228 96.8582 448.777 96.9226 447.891C97.1805 444.023 98.0987 410.311 98.0342 406.896C98.002 405.22 97.6476 394.809 97.2932 384.753C96.971 375.601 96.6811 366.947 96.6489 365.529C96.6489 364.933 96.6489 364.321 96.6327 363.724C96.6165 362.21 96.5844 360.776 96.6649 359.743C101.224 362.273 105.927 363.901 110.696 364.61C112.532 364.885 114.369 365.013 116.189 365.013C119.443 365.013 122.665 364.578 125.822 363.724C129.817 362.645 133.587 360.888 136.728 358.648C139.515 356.666 141.577 354.474 142.559 352.459L141.93 352.154C140.127 355.86 133.957 360.776 125.645 363.047C118.267 365.045 106.814 365.674 94.0231 357.31C98.0503 352.508 100.016 345.467 99.8706 336.345C99.7579 328.917 98.2597 320.279 95.4246 310.675L94.748 310.868C97.5509 320.424 99.0491 328.997 99.1618 336.361C99.339 347.094 96.5522 354.829 90.9141 359.39C79.654 367.495 59.1312 364.771 49.6269 357.085L49.192 357.632C53.9764 361.5 61.5959 364.208 69.5537 364.852C70.8102 364.948 72.0345 365.013 73.2587 365.013C76.0294 365.013 78.6875 364.755 81.2165 364.224C84.9216 363.45 88.1594 362.128 90.8335 360.307C90.8979 361.243 90.8819 362.403 90.8657 363.724C90.8657 364.304 90.8496 364.9 90.8496 365.529C90.8174 366.963 90.5275 375.601 90.2053 384.753C89.8508 394.809 89.4964 405.22 89.4642 406.896C89.3999 410.311 90.3181 444.023 90.5758 447.891C90.6402 448.777 90.753 450.228 90.8979 452.081C91.3973 458.494 92.2189 469.211 92.0578 472.627C91.9128 475.753 91.204 480.797 90.6242 484.858C90.1892 487.936 89.8187 490.595 89.7703 491.804C89.6414 494.769 90.2697 508.45 90.3986 511.012C90.5758 514.606 90.9624 533.573 90.8657 536.94C90.8014 538.971 89.867 554.892 89.126 567.687C88.6105 576.47 88.1756 584.044 88.0949 585.494C87.9017 589.796 87.3379 605.734 87.3863 622.075C87.4346 639.607 87.7084 646.698 88.5782 653.707C88.9004 656.302 87.8695 663.472 87.5795 665.085V665.133V665.182C87.7889 668.259 88.2561 672.643 88.7554 677.299C89.5448 684.631 90.3503 692.221 90.0602 694.349V694.397C90.0602 695.589 90.0602 698.361 88.0144 700.392C86.3069 702.1 83.5039 702.954 79.6862 702.954H79.5573C77.8981 703.164 71.9056 702.905 69.0059 701.745C67.9911 701.343 67.5078 701.019 67.1695 700.778C66.3642 700.247 66.0419 700.102 63.2873 700.214C62.9491 700.214 62.5625 700.247 62.1597 700.279C59.3084 700.472 54.9912 700.746 50.4162 698.329L50.2874 698.264L50.1585 698.296C48.1772 698.828 44.5849 698.023 42.7645 696.62C42.2652 696.25 41.6852 695.654 41.6852 694.977C41.6852 692.206 46.6629 691.11 49.9653 690.385C50.7223 690.223 51.3828 690.078 51.8982 689.933L52.0111 689.901L52.0754 689.82C52.4782 689.304 53.3481 688.467 54.4435 687.42C57.8586 684.116 63.5934 678.588 66.3963 672.497C67.8462 670.08 68.7482 662.877 68.1683 660.459V660.427C66.9279 656.688 67.6045 654.609 68.5388 651.725C68.8287 650.807 69.167 649.776 69.457 648.599V648.567C70.9552 639.22 65.752 622.59 65.2204 618.82C64.9304 616.772 61.8053 600.271 58.7768 584.333C57.0209 575.068 55.3617 566.301 54.3951 561.113C51.8661 547.48 50.4969 535.168 50.1102 528.77C49.8041 523.871 50.4162 515.943 50.9157 509.578C51.0284 508.175 51.125 506.854 51.2056 505.63C51.705 498.604 52.4138 480.007 51.8982 471.032C51.3344 460.896 47.1945 446.327 46.7112 444.7C45.3742 440.059 42.3135 428.714 36.917 404.848C31.2789 379.887 30.5862 364.9 33.2281 350.011C34.2429 344.306 33.6308 330.158 34.098 326C34.3235 324.082 34.5813 321.553 34.855 318.861C35.3867 313.656 35.9988 307.758 36.4015 305.437C36.6754 303.874 38.544 299.023 39.6556 293.867C41.0731 287.293 41.347 280.589 41.1698 278.542C41.0571 277.205 41.5242 274.659 41.6531 271.29C41.9108 264.281 41.7497 224.188 41.202 220.175C41.0731 219.24 40.8476 217.774 40.5576 215.904C39.5589 209.394 39.5267 198.516 38.8339 189.992V189.911L38.7856 189.847C36.2243 185.19 28.041 179.47 26.5429 173.298" fill="white"/>
<path d="M17.7955 252.871C17.6989 252.871 17.6022 252.871 17.5055 252.871C15.7819 252.807 13.9777 252.162 12.2701 251.018L12.6567 250.438C15.363 252.242 19.213 253.21 21.9516 250.486L22.4509 250.986C21.1945 252.242 19.5996 252.888 17.8116 252.888L17.7955 252.871Z" fill="black"/>
<path d="M85.6621 497.427C85.4366 496.975 80.2172 486.421 79.4602 480.555L80.1529 480.459C80.8939 486.212 86.2259 497.008 86.2904 497.12L85.6621 497.427Z" fill="black"/>
<path d="M57.9069 497.509L57.3752 497.057C58.5995 495.639 61.7247 487.421 63.4001 483.005C63.8672 481.796 64.2216 480.846 64.4148 480.379L65.0593 480.652C64.8659 481.104 64.5115 482.055 64.0444 483.262C61.6925 489.434 59.0828 496.123 57.8908 497.524L57.9069 497.509Z" fill="black"/>
<path d="M94.9087 275.658C91.993 268.342 91.5581 244.589 91.7031 225.928C91.8642 204.302 92.8791 183.45 93.3623 178.341L94.071 178.406C93.5878 183.499 92.589 204.318 92.4118 225.928C92.2669 244.508 92.7019 268.18 95.5692 275.384L94.9087 275.641V275.658Z" fill="black"/>
<path d="M112.452 186.994C111.647 186.994 110.922 186.672 110.277 186.028C106.411 182.128 106.572 166.964 106.653 158.826C106.653 157.844 106.669 156.99 106.669 156.296H107.378C107.378 157.005 107.378 157.859 107.362 158.843C107.281 166.304 107.12 181.854 110.777 185.545C111.276 186.06 111.824 186.302 112.452 186.302V187.011V186.994Z" fill="black"/>
<path d="M169.67 252.871C167.883 252.871 166.272 252.211 165.031 250.97L165.531 250.47C168.253 253.193 172.119 252.242 174.826 250.421L175.213 251.002C173.504 252.146 171.684 252.791 169.977 252.856C169.88 252.856 169.783 252.856 169.687 252.856L169.67 252.871Z" fill="black"/>
<path d="M74.9985 186.994V186.285C75.6107 186.285 76.1583 186.044 76.6738 185.528C80.3306 181.838 80.1694 166.287 80.0889 158.826C80.0889 157.844 80.0727 156.99 80.0727 156.28H80.7815C80.7815 156.99 80.7815 157.827 80.7977 158.81C80.8782 166.948 81.0393 182.111 77.1732 186.012C76.5289 186.656 75.8039 186.979 74.9985 186.979V186.994Z" fill="black"/>
<path d="M72.066 686.339L71.5505 686.13C75.2234 677.025 75.4811 672.674 75.175 665.535H75.7388C75.9 669.177 75.8838 672.079 75.4006 675.204C74.8851 678.459 73.8702 681.891 72.0822 686.339H72.066Z" fill="black"/>
<path d="M83.23 687.451C79.6377 680.491 80.0082 672.159 80.2015 667.695C80.2498 666.664 80.2821 665.857 80.2498 665.31H80.8136C80.8298 665.857 80.8136 666.679 80.7653 667.711C80.572 672.126 80.2176 680.361 83.7454 687.193L83.2461 687.451H83.23Z" fill="black"/>
<path d="M103.446 686.339L102.931 686.13C106.604 677.025 106.861 672.674 106.555 665.535H107.119C107.28 669.177 107.264 672.079 106.781 675.204C106.265 678.459 105.251 681.891 103.463 686.339H103.446Z" fill="black"/>
<path d="M114.594 687.451C111.002 680.491 111.372 672.159 111.566 667.695C111.614 666.664 111.646 665.857 111.614 665.31H112.178C112.194 665.857 112.178 666.679 112.13 667.711C111.936 672.126 111.582 680.361 115.11 687.193L114.61 687.451H114.594Z" fill="black"/>
<path d="M102.109 497.427L101.481 497.12C101.529 497.008 106.861 486.212 107.619 480.459L108.311 480.555C107.554 486.421 102.335 496.992 102.109 497.427Z" fill="black"/>
<path d="M129.044 497.507C127.852 496.106 121.94 489.419 119.588 483.247C119.137 482.038 118.766 481.087 118.573 480.636L119.218 480.362C119.411 480.829 119.765 481.78 120.232 482.989C121.908 487.404 128.335 495.623 129.559 497.04L129.027 497.492L129.044 497.507Z" fill="black"/>
</svg>
