<svg width="187" height="733" viewBox="0 0 187 733" fill="none" xmlns="http://www.w3.org/2000/svg">
<g clip-path="url(#clip0_4_257)">
<path d="M185.036 351.889C184.97 347.491 184.902 343.715 184.869 342.994C184.852 342.455 184.869 341.533 184.885 340.475C184.935 338.193 185.02 335.054 184.683 333.14C184.264 330.64 184.466 312.176 184.566 305.278C184.566 304.304 184.733 301.736 184.952 298.177C185.607 287.335 186.817 267.142 185.859 260.646C184.952 254.419 184.012 249.854 183.491 248.075C182.987 246.395 182.417 241.528 182.668 238.893C182.787 237.583 182.769 233.555 182.736 229.275C182.702 224.961 182.686 220.514 182.802 218.768C183.072 215.192 182.736 180.33 182.702 177.511C182.702 177.242 182.702 176.839 182.702 176.352C182.702 173.246 182.702 165.996 181.879 157.956C180.854 147.919 178.923 140.03 176.153 134.558C173.7 129.723 170.223 125.745 165.807 122.758C161.743 120.005 158.3 119.065 157.61 118.897C141.287 113.694 130.136 109.598 123.535 106.342C117.976 103.606 116.532 101.927 115.541 100.45C114.08 98.2684 113.341 93.7028 113.341 86.9217V74.2155C115.491 71.211 117.758 67.6693 118.379 65.588C118.732 64.4299 119.656 61.3247 120.445 57.0612C120.563 56.4402 120.663 55.8024 120.764 55.1645C121.285 55.1142 121.789 54.8456 122.293 54.3924C124.862 52.0425 126.945 44.2711 126.911 37.0703C126.911 33.663 126.39 31.8838 125.332 31.4474C124.241 30.9942 122.981 32.1188 121.89 33.193C121.822 24.9349 121.285 17.8851 118.598 12.9671C116.801 9.67728 113.391 6.48814 109.025 3.98718C104.826 1.60372 100.241 0.160206 96.4123 0.0594968C96.1604 0.0594968 95.7909 0.0594981 95.3375 0.0427131C93.4566 0.00914317 90.6351 -0.0412129 89.745 0.0594968C85.496 0.160206 80.8607 1.6205 76.6622 4.13824C72.6819 6.52171 69.3734 9.74442 67.5932 12.9671C64.8893 17.8515 64.3519 24.918 64.3015 33.1763C63.2267 32.102 61.9503 30.9942 60.8754 31.4306C59.8175 31.8669 59.3136 33.6462 59.2968 37.0536C59.2799 44.2544 61.3457 52.0258 63.9153 54.3756C64.4191 54.8288 64.9228 55.0806 65.4435 55.1477C65.5443 55.7855 65.645 56.4067 65.7626 57.0445C66.552 61.3078 67.4757 64.3962 67.8283 65.5712C68.4497 67.6357 70.7002 71.1438 72.8499 74.1483V86.9049C72.8499 93.7029 72.1109 98.2516 70.6498 100.434C69.659 101.911 68.2314 103.589 62.6556 106.325C56.0554 109.565 44.9208 113.677 28.5798 118.88C27.8912 119.048 24.4485 119.988 20.3842 122.741C15.9673 125.745 12.4908 129.707 10.0388 134.541C7.26773 140.03 5.33642 147.902 4.31197 157.938C3.48904 165.979 3.48906 173.231 3.48906 176.335C3.48906 176.839 3.48906 177.224 3.48906 177.493C3.45547 180.313 3.11958 215.192 3.38829 218.751C3.52266 220.496 3.48902 224.961 3.45544 229.258C3.42185 233.538 3.40502 237.566 3.52258 238.876C3.7745 241.511 3.18671 246.395 2.69967 248.058C2.17904 249.82 0.617201 258.363 0.113369 266.202C-0.323286 272.949 0.600344 287.703 1.20494 297.472C1.44006 301.182 1.60803 304.119 1.64161 305.261C1.75918 312.159 1.96069 330.623 1.52404 333.124C1.20495 335.054 1.27213 338.175 1.32252 340.458C1.35611 341.516 1.37291 342.44 1.33933 342.976C1.30574 343.697 1.2386 347.475 1.17142 351.872C1.07066 358.149 0.936281 365.955 0.835515 367.802C0.734748 369.883 1.8935 375.606 2.24619 377.319C2.95155 380.692 3.92566 384.704 4.3791 385.526C5.95778 388.33 19.1582 403.872 19.7125 404.543L20.0987 404.996L20.3338 404.46C20.5185 404.041 20.6529 403.603 20.7537 403.167C22.4163 400.197 21.6941 396.638 20.4513 394.288C19.1749 391.854 17.378 389.403 15.9504 387.423C14.7749 385.795 13.7503 384.402 13.4985 383.663C12.2893 380.138 11.4831 372.384 11.7014 366.593C12.474 368.775 12.7763 371.376 13.0618 373.693C13.129 374.281 13.1961 374.835 13.2633 375.372C13.8007 385.559 15.9673 387.541 17.1933 387.809C17.3108 387.826 17.4116 387.843 17.5124 387.843C18.0666 387.843 18.52 387.524 18.7048 387.171C20.2163 384.385 20.0819 376.445 19.9476 368.775C19.8635 363.572 19.7796 358.653 20.2498 356.136V356.086C20.5017 351.957 20.317 345.947 18.1169 340.744C16.0344 335.825 16.7063 329.079 16.9246 326.862C17.2437 323.657 19.6956 307.694 22.7858 295.811C23.6255 292.588 24.4148 289.633 25.1874 286.797C27.3035 278.975 28.966 272.815 29.789 267.444C30.8806 260.361 31.922 249.199 31.586 245.876C32.7112 237.903 33.5173 230.752 33.8532 225.751C34.0548 222.847 34.2563 219.859 34.4746 216.972C34.7097 213.748 34.928 210.694 35.0961 207.959C35.3311 204.249 35.6334 197.2 35.7846 193.472C36.3724 196.394 37.3465 201.127 38.4045 206.33C40.5878 216.988 43.0734 229.057 43.4764 231.692C43.5437 232.079 43.5941 232.447 43.6612 232.817C44.2994 236.795 44.736 239.43 41.6123 245.304C38.1358 251.834 34.6595 262.794 33.2991 268.165C33.1311 268.804 32.896 269.727 32.5769 270.901C31.3844 275.367 29.3859 282.819 27.589 291.228C25.4057 301.467 24.2133 309.961 24.0286 316.456C23.5918 333.074 25.3385 349.791 26.7492 363.235L26.8836 364.595C28.076 376.026 31.183 391.333 36.3891 411.375C39.8825 424.836 46.3987 440.681 48.8506 446.657C49.2537 447.631 49.5392 448.319 49.6903 448.738C50.4461 450.652 54.1913 460.504 54.4937 466.58C54.7455 471.616 53.5699 478.75 51.9576 488.637C51.7225 490.063 51.4875 491.524 51.2355 493.051C49.3882 504.464 47.1208 519.689 46.7682 527.443C46.4491 534.376 47.6751 541.56 48.7498 547.888C48.8506 548.492 48.9514 549.079 49.0522 549.667C49.5392 552.52 50.6477 556.934 52.0584 562.507C53.9897 570.144 56.6432 580.618 59.2128 593.206C62.4542 609.169 64.5366 624.695 65.561 640.675C66.0817 648.749 65.3763 657.745 63.6633 664.744C62.5381 669.36 57.7517 684.953 54.5776 695.276C53.2675 699.539 52.2432 702.897 51.7056 704.658C49.7744 711.154 51.7393 715.485 56.8448 722.737C61.9839 730.02 67.1229 732.589 69.3566 732.959C69.4238 732.959 69.4742 732.959 69.5582 732.959C70.3474 732.959 71.7414 732.186 75.1507 727.687C77.5355 724.533 80.1218 720.604 81.8516 717.903C85.3113 712.514 85.3281 709.728 85.3281 707.479C85.3281 707.26 85.3281 707.043 85.3281 706.824C85.3617 690.996 85.899 679.498 86.2517 671.895C86.5037 666.423 86.6716 662.798 86.5541 660.397C86.386 656.989 86.5372 653.314 86.6716 649.755C86.7724 647.22 86.8565 644.837 86.8396 642.638C86.7892 637.385 87.377 620.13 87.4945 617.309C87.612 614.591 90.7527 558.864 90.9878 556.146C91.9283 544.53 91.9618 533.67 91.9618 528.433C91.9618 527.745 91.9618 527.158 91.9618 526.688C91.9618 524.489 91.3909 518.161 90.7191 510.825C89.7786 500.605 88.603 487.881 88.6701 482.09C88.6869 480.228 88.8213 478.145 88.9556 475.745C89.1235 472.892 89.3083 469.669 89.3922 465.776C89.4426 463.845 89.5099 460.454 89.5938 456.174C89.829 444.694 90.1816 427.355 90.4503 418.408C90.5511 414.934 90.7694 410.334 90.9878 405.467C91.5419 393.063 92.2474 377.637 91.8612 368.507C91.3405 356.404 88.7038 345.007 86.9236 338.562C88.2839 339.301 90.0809 339.754 92.0626 339.838C92.2642 339.838 92.4657 339.838 92.6673 339.838C95.1696 339.838 97.5208 339.216 99.3514 338.125C97.5712 344.487 94.8168 356.136 94.2963 368.507C93.9099 377.637 94.5985 393.063 95.1696 405.467C95.3879 410.334 95.6062 414.934 95.707 418.408C95.9757 427.355 96.3283 444.694 96.5635 456.174C96.6474 460.454 96.7147 463.845 96.7651 465.776C96.849 469.669 97.0338 472.892 97.2017 475.745C97.336 478.145 97.4537 480.21 97.4872 482.09C97.5712 487.881 96.3956 500.605 95.4383 510.825C94.7666 518.161 94.1786 524.489 94.1955 526.688C94.1955 527.158 94.1955 527.745 94.1955 528.433C94.1955 533.653 94.229 544.53 95.1696 556.146C95.4048 558.864 98.5453 614.591 98.6628 617.309C98.7804 620.13 99.3682 637.385 99.3178 642.638C99.301 644.82 99.3849 647.22 99.4857 649.755C99.6201 653.314 99.7713 657.007 99.6034 660.397C99.4857 662.798 99.6536 666.406 99.9056 671.895C100.258 679.498 100.779 690.996 100.829 706.824C100.829 707.026 100.829 707.244 100.829 707.462C100.829 709.711 100.829 712.497 104.306 717.885C106.035 720.571 108.605 724.515 111.007 727.671C114.416 732.169 115.81 732.942 116.599 732.942C116.666 732.942 116.734 732.942 116.801 732.942C119.034 732.572 124.19 730.004 129.313 722.719C134.434 715.452 136.383 711.121 134.452 704.642C133.93 702.879 132.889 699.506 131.58 695.259C128.406 684.936 123.619 669.343 122.494 664.728C120.781 657.728 120.076 648.732 120.596 640.658C121.621 624.662 123.703 609.135 126.944 593.189C129.497 580.601 132.151 570.127 134.099 562.491C135.51 556.917 136.635 552.503 137.105 549.649C137.206 549.062 137.307 548.475 137.408 547.87C138.482 541.525 139.709 534.342 139.389 527.426C139.036 519.672 136.753 504.447 134.922 493.033C134.671 491.506 134.434 490.03 134.2 488.619C132.587 478.75 131.412 471.616 131.664 466.564C131.966 460.488 135.712 450.635 136.468 448.722C136.635 448.302 136.92 447.614 137.307 446.641C139.759 440.681 146.275 424.819 149.768 411.359C154.974 391.317 158.081 376.009 159.274 364.578L159.408 363.219C160.819 349.791 162.565 333.074 162.129 316.44C161.961 309.944 160.768 301.45 158.568 291.212C156.771 282.803 154.772 275.35 153.58 270.885C153.262 269.71 153.026 268.787 152.859 268.149C151.498 262.777 148.038 251.834 144.546 245.287C141.421 239.43 141.841 236.795 142.497 232.8C142.563 232.43 142.613 232.061 142.681 231.676C143.084 229.041 145.57 216.972 147.753 206.314C148.828 201.11 149.802 196.376 150.373 193.456C150.524 197.2 150.81 204.231 151.062 207.941C151.246 210.694 151.465 213.732 151.682 216.955C151.884 219.842 152.103 222.812 152.304 225.734C152.64 230.736 153.446 237.886 154.555 245.859C154.218 249.199 155.26 260.361 156.352 267.427C157.174 272.798 158.853 278.975 160.953 286.781C161.726 289.633 162.515 292.572 163.354 295.794C166.462 307.677 168.897 323.64 169.216 326.846C169.434 329.061 170.106 335.809 168.024 340.727C165.824 345.931 165.655 351.939 165.89 356.068V356.119C166.361 358.637 166.277 363.555 166.193 368.759C166.059 376.429 165.925 384.368 167.435 387.154C167.621 387.524 168.075 387.843 168.645 387.843C168.746 387.843 168.864 387.843 168.964 387.809C170.207 387.541 172.357 385.577 172.894 375.372C172.962 374.835 173.028 374.281 173.096 373.693C173.365 371.376 173.683 368.775 174.456 366.593C174.674 372.367 173.868 380.138 172.659 383.663C172.407 384.402 171.382 385.795 170.207 387.423C168.779 389.387 166.999 391.837 165.706 394.288C164.48 396.638 163.742 400.197 165.403 403.167C165.504 403.603 165.638 404.041 165.824 404.46L166.059 404.996L166.445 404.543C166.999 403.89 180.199 388.33 181.779 385.526C182.248 384.704 183.206 380.692 183.911 377.319C184.264 375.606 185.423 369.9 185.322 367.802C185.237 365.955 185.103 358.149 184.985 351.872L185.036 351.889Z" fill="black"/>
<path d="M122.074 34.0657C122.964 33.1593 124.324 31.7829 125.08 32.1018C125.5 32.2696 126.189 33.1425 126.205 37.0533C126.222 43.952 124.224 51.6227 121.822 53.8216C121.52 54.1069 121.218 54.2916 120.915 54.3586C121.52 50.3303 121.839 46.1508 121.889 41.9378V40.7629C121.923 38.5136 121.94 36.3316 121.94 34.2167C121.99 34.1663 122.04 34.116 122.091 34.0657H122.074Z" fill="white"/>
<path d="M64.4525 53.8216C62.0508 51.6227 60.0356 43.952 60.0692 37.0533C60.0692 33.1425 60.7745 32.2696 61.1944 32.1018C61.95 31.7829 63.3104 33.1593 64.2005 34.0657C64.2509 34.116 64.2845 34.1663 64.3349 34.2C64.3349 36.214 64.3517 38.2786 64.3686 40.4103C64.3686 40.9139 64.3686 41.4174 64.3686 41.9378C64.4021 46.1508 64.7379 50.3303 65.3426 54.3586C65.0402 54.2747 64.7379 54.1069 64.4357 53.8216H64.4525Z" fill="white"/>
<path d="M68.5675 65.336C66.3674 57.9841 65.2085 50.112 65.1246 41.9377C65.1246 41.4341 65.1246 40.9139 65.1246 40.4103C65.0069 29.1308 64.9062 19.3955 68.2986 13.3026C71.6072 7.32712 80.5754 0.999183 89.8459 0.780978H89.8795C90.6857 0.680269 93.6247 0.730624 95.388 0.764193C95.8415 0.764193 96.211 0.764193 96.463 0.780978C104.423 0.999183 114.5 6.85714 118.01 13.3026C121.386 19.4794 121.285 29.3322 121.167 40.746V41.921C121.083 50.0952 119.925 57.9673 117.725 65.3192C117.154 67.2327 114.903 70.7407 112.72 73.8123C112.703 73.846 112.669 73.8795 112.653 73.913C111.376 75.7091 110.117 77.3372 109.227 78.4282C102.223 86.3842 98.0751 87.425 95.8415 87.9957C95.5561 88.0629 95.3041 88.1299 95.069 88.1971C93.6414 88.5663 91.6766 88.3146 91.2398 88.1971C91.0048 88.1299 90.7528 88.0629 90.4673 87.9957C88.2336 87.4417 84.0854 86.4011 77.0821 78.4282C76.192 77.3372 74.9157 75.6923 73.6224 73.8795C73.6224 73.8627 73.589 73.846 73.589 73.8123C71.4058 70.7407 69.1551 67.2327 68.5842 65.3192L68.5675 65.336Z" fill="white"/>
<path d="M12.8434 383.914C13.129 384.753 14.1367 386.131 15.3962 387.876C16.8069 389.823 18.5871 392.257 19.83 394.64C20.7033 396.285 21.2911 398.585 20.8712 400.784C20.72 399.457 20.233 398.031 19.4438 396.469C18.0834 393.834 16.0344 391.267 14.2206 389.018C12.9778 387.473 11.9031 386.131 11.2649 385.04C10.1061 381.246 10.4587 374.717 10.9961 370.168C11.1305 375.052 11.7686 380.776 12.8434 383.914Z" fill="white"/>
<path d="M165.353 400.784C164.934 398.585 165.522 396.301 166.394 394.64C167.654 392.24 169.418 389.823 170.828 387.876C172.088 386.131 173.096 384.771 173.381 383.914C174.456 380.776 175.094 375.052 175.228 370.168C175.749 374.7 176.118 381.246 174.96 385.04C174.321 386.131 173.247 387.473 172.004 389.018C170.19 391.267 168.141 393.834 166.781 396.469C165.975 398.031 165.504 399.457 165.353 400.784Z" fill="white"/>
<path d="M33.6682 173.347C33.3658 175.395 33.2147 177.476 33.2147 179.541C33.2147 183.552 33.9034 187.228 35.2469 190.451C35.1797 192.112 34.7095 203.123 34.4072 207.907C34.2392 210.643 34.0042 213.698 33.7857 216.922C33.5843 219.809 33.366 222.779 33.1644 225.699C32.8285 230.684 32.0224 237.835 30.897 245.808V245.859V245.909C31.2498 249.131 30.2085 260.276 29.1168 267.344C28.2939 272.68 26.6313 278.841 24.532 286.63C23.7595 289.482 22.9702 292.419 22.1305 295.659C19.0235 307.594 16.5547 323.606 16.2356 326.829C16.0173 329.094 15.3287 335.976 17.4952 341.062C19.6448 346.131 19.8129 352.007 19.5777 356.051C19.0906 358.653 19.1914 363.588 19.2755 368.808C19.393 376.042 19.5442 384.234 18.1166 386.852C18.0326 387.003 17.7807 387.204 17.3945 387.121C17.0081 387.037 16.2693 386.617 15.5471 384.72C14.7578 382.655 14.2539 379.5 14.0356 375.354V375.321C13.9684 374.783 13.9011 374.23 13.8172 373.642C13.5485 371.342 13.2294 368.741 12.4569 366.475C11.5332 363.807 10.1224 362.162 8.14071 361.474L7.88886 362.162C9.38356 362.681 10.408 363.807 11.1302 365.233L11.0294 365.636C10.492 367.533 8.74532 379.45 10.5591 385.307V385.342L10.5927 385.375C11.2645 386.534 12.3561 387.892 13.6326 389.487C15.4127 391.72 17.4449 394.237 18.7716 396.822C20.1319 399.474 20.5013 401.707 19.88 403.636C17.5959 400.951 6.41094 387.691 5.03379 385.207C4.29484 383.881 1.43981 370.89 1.59096 367.885C1.67494 366.021 1.80921 358.217 1.92677 351.939C1.99394 347.559 2.06118 343.765 2.09478 343.06C2.11157 342.49 2.09476 341.566 2.07796 340.492C2.02758 338.243 1.94359 335.155 2.26268 333.291C2.78331 330.203 2.38025 305.546 2.38025 305.294C2.36346 304.135 2.1787 301.198 1.94359 297.472C1.33898 287.72 0.432149 272.999 0.852008 266.303C1.35583 258.514 2.88406 250.055 3.40468 248.309C3.92531 246.58 4.51312 241.561 4.26122 238.843C4.14366 237.566 4.16049 233.555 4.19407 229.291C4.22766 224.978 4.24449 220.496 4.12694 218.716C3.87502 215.327 4.16052 182.494 4.22769 177.509C4.22769 177.224 4.22769 176.839 4.22769 176.335C4.24449 157.268 6.42773 143.319 10.6935 134.876C13.0783 130.159 16.4876 126.265 20.787 123.345C24.7672 120.642 28.1261 119.736 28.7643 119.585H28.781C45.1556 114.365 56.3406 110.252 62.9744 106.979C68.7013 104.16 70.196 102.397 71.254 100.836C72.2449 99.3423 72.9336 96.8414 73.2862 93.4004C73.5718 90.6644 73.5716 88.0125 73.5716 86.8878V75.1552C74.7472 76.7664 75.8053 78.1261 76.4603 78.9318C83.6147 87.0724 87.914 88.1468 90.2149 88.7342C90.5003 88.8013 90.7523 88.8685 90.9539 88.9356H90.9706C91.3065 89.0195 92.2134 89.1537 93.2211 89.1537C93.8761 89.1537 94.5814 89.1035 95.2029 88.9356C95.4212 88.8685 95.6563 88.8013 95.9417 88.7342C98.2426 88.1468 102.542 87.0724 109.696 78.9486C110.335 78.1597 111.393 76.8001 112.551 75.2055V86.9046C112.551 88.0292 112.551 90.6812 112.837 93.4172C113.19 96.8581 113.878 99.359 114.869 100.853C115.91 102.414 117.405 104.176 123.149 106.996C129.783 110.252 140.967 114.382 157.343 119.585H157.359C157.996 119.753 161.356 120.659 165.336 123.362C169.653 126.282 173.045 130.176 175.43 134.893C179.712 143.335 181.878 157.301 181.895 176.352C181.895 176.856 181.895 177.242 181.895 177.527C181.963 182.512 182.248 215.343 181.996 218.734C181.862 220.512 181.895 224.978 181.928 229.308C181.963 233.571 181.979 237.583 181.862 238.859C181.61 241.561 182.198 246.597 182.719 248.325C183.239 250.071 184.163 254.587 185.069 260.78C186.011 267.208 184.801 287.351 184.146 298.177C183.927 301.735 183.776 304.321 183.76 305.311C183.76 305.563 183.357 330.22 183.877 333.308C184.196 335.155 184.113 338.243 184.062 340.508C184.028 341.583 184.012 342.506 184.045 343.077C184.078 343.782 184.146 347.575 184.214 351.957C184.314 358.234 184.448 366.056 184.549 367.918C184.683 370.923 181.845 383.914 181.106 385.241C179.712 387.708 168.527 400.968 166.26 403.671C165.638 401.757 166.008 399.508 167.385 396.855C168.712 394.27 170.744 391.753 172.524 389.521C173.8 387.943 174.893 386.567 175.564 385.408V385.375L175.597 385.342C177.411 379.483 175.665 367.533 175.128 365.619L175.027 365.266C175.748 363.84 176.789 362.716 178.268 362.195L178.016 361.507C176.035 362.212 174.624 363.84 173.699 366.508C172.927 368.757 172.608 371.359 172.34 373.676C172.272 374.263 172.204 374.833 172.138 375.354V375.387C171.919 379.551 171.399 382.706 170.626 384.753C169.905 386.65 169.165 387.07 168.779 387.154C168.393 387.237 168.141 387.037 168.057 386.886C166.646 384.284 166.78 376.075 166.915 368.858C166.999 363.638 167.083 358.703 166.613 356.101C166.377 352.057 166.545 346.181 168.695 341.113C170.845 336.027 170.173 329.145 169.955 326.88C169.636 323.656 167.183 307.644 164.06 295.709C163.221 292.487 162.414 289.532 161.658 286.68C159.559 278.891 157.896 272.73 157.073 267.394C155.982 260.326 154.941 249.182 155.294 245.959V245.909V245.859C154.168 237.886 153.361 230.735 153.026 225.749C152.824 222.829 152.623 219.859 152.405 216.972C152.169 213.748 151.951 210.71 151.783 207.957C151.465 203.007 150.977 191.626 150.926 190.585C152.287 187.346 152.993 183.653 152.993 179.592C152.993 177.509 152.841 175.445 152.539 173.398H151.8C152.085 175.345 152.254 177.409 152.254 179.592C152.254 194.513 142.193 204.148 126.608 204.148C112.837 204.148 102.038 194.563 100.946 181.353L100.208 181.421C100.493 184.794 101.383 188.001 102.861 190.921C104.289 193.741 106.237 196.243 108.638 198.339C113.458 202.553 119.84 204.886 126.592 204.886C130.253 204.886 133.713 204.349 136.854 203.292C140.078 202.218 142.898 200.606 145.25 198.525C147.014 196.946 148.491 195.134 149.668 193.087C149.096 195.973 148.088 200.858 146.979 206.246C144.796 216.904 142.311 228.989 141.908 231.641C141.841 232.027 141.791 232.397 141.723 232.767C141.086 236.744 140.615 239.631 143.856 245.707C147.316 252.186 150.742 263.063 152.103 268.4C152.27 269.039 152.506 269.979 152.824 271.136C155.042 279.428 160.953 301.45 161.339 316.523C161.776 333.107 160.03 349.791 158.618 363.202L158.484 364.562C157.292 375.959 154.185 391.217 148.995 411.241C145.519 424.652 139.019 440.463 136.567 446.422C136.164 447.395 135.879 448.1 135.71 448.52C134.653 451.239 131.16 460.555 130.857 466.598C130.605 471.717 131.781 478.884 133.411 488.804C133.645 490.231 133.88 491.691 134.132 493.219C135.98 504.616 138.247 519.823 138.599 527.527C138.918 534.376 137.709 541.525 136.635 547.82C136.534 548.425 136.433 549.012 136.332 549.599C135.861 552.418 134.737 556.816 133.326 562.389C131.378 570.043 128.724 580.517 126.172 593.123C122.93 609.119 120.848 624.678 119.807 640.691C119.286 648.832 119.991 657.912 121.721 664.995C122.846 669.628 127.65 685.238 130.824 695.561C132.134 699.824 133.159 703.182 133.696 704.943C135.543 711.137 133.628 715.334 128.657 722.4C123.669 729.483 118.749 731.967 116.616 732.32C116.263 732.37 115.071 732.018 111.544 727.352C109.176 724.213 106.606 720.302 104.877 717.616C101.518 712.414 101.518 709.727 101.518 707.58C101.518 707.344 101.518 707.142 101.518 706.925C101.484 691.08 100.946 679.581 100.594 671.961C100.359 666.708 100.174 662.897 100.292 660.547C100.459 657.107 100.308 653.415 100.174 649.838C100.073 647.321 99.9892 644.938 100.006 642.756C100.056 637.485 99.4686 620.213 99.351 617.394C99.2335 614.674 96.0929 558.914 95.8411 556.196C94.9005 544.614 94.8838 533.754 94.867 528.55C94.867 527.862 94.867 527.275 94.867 526.806C94.867 524.657 95.4379 518.329 96.1098 511.027C97.0502 500.789 98.2426 488.048 98.1587 482.208C98.1419 480.327 98.0075 478.246 97.8732 475.83C97.7051 472.976 97.5205 469.752 97.4366 465.875C97.3862 463.945 97.3189 460.555 97.235 456.275C96.9998 444.793 96.6472 427.454 96.3785 418.509C96.2777 415.017 96.0594 410.418 95.8411 405.55C95.2868 393.164 94.5814 377.755 94.9678 368.657C95.5219 355.766 98.4945 343.682 100.241 337.588C100.493 337.387 100.728 337.185 100.946 336.951C102.878 335.037 113.441 325.2 132.47 319.444L132.251 318.738C113.055 324.547 102.374 334.483 100.426 336.43C98.5449 338.309 95.4044 339.334 92.0287 339.2C89.8454 339.115 87.8637 338.528 86.5705 337.621C86.453 337.538 86.3354 337.454 86.2346 337.37C86.0498 337.218 85.8651 337.051 85.7308 336.866L85.6972 336.833C80.1887 331.747 72.6983 327.434 67.3745 324.714C61.043 321.474 55.7192 319.393 53.7878 318.738L53.5528 319.444C57.6171 320.819 74.9151 327.903 85.1765 337.37C85.3949 337.621 85.6468 337.856 85.9323 338.075C87.6957 344.319 90.534 356.119 91.0714 368.657C91.4577 377.755 90.7691 393.18 90.1982 405.55C89.9799 410.418 89.7783 415.017 89.6607 418.509C89.392 427.454 89.0393 444.793 88.8042 456.275C88.7202 460.555 88.6531 463.945 88.6027 465.875C88.5186 469.752 88.3339 472.976 88.166 475.83C88.0317 478.229 87.9141 480.311 87.8806 482.208C87.7965 488.032 88.9889 500.789 89.9294 511.027C90.6011 518.345 91.1889 524.657 91.1722 526.806C91.1722 527.275 91.1722 527.862 91.1722 528.567C91.1722 533.787 91.1386 544.631 90.1982 556.212C89.9631 558.932 86.8057 614.691 86.7049 617.41C86.5874 620.231 85.9995 637.519 86.0498 642.772C86.0667 644.938 85.9827 647.321 85.8819 649.856C85.7476 653.43 85.5965 657.14 85.7644 660.564C85.8819 662.932 85.6972 666.725 85.4622 671.978C85.1094 679.598 84.5887 691.096 84.5383 706.925C84.5383 707.142 84.5383 707.361 84.5383 707.58C84.5383 709.727 84.5383 712.396 81.1795 717.616C79.4497 720.302 76.8802 724.213 74.5122 727.352C70.9853 732.018 69.7929 732.388 69.4403 732.32C67.3241 731.967 62.4034 729.483 57.3987 722.4C52.4275 715.334 50.513 711.137 52.3604 704.943C52.881 703.182 53.9223 699.824 55.2322 695.561C58.4063 685.238 63.2096 669.628 64.3348 664.995C66.0646 657.929 66.77 648.848 66.2493 640.691C65.2249 624.662 63.1423 609.102 59.8842 593.123C57.3314 580.517 54.6612 570.043 52.7298 562.389C51.319 556.833 50.2107 552.435 49.7236 549.599C49.6229 549.012 49.5221 548.425 49.4213 547.82C48.3465 541.525 47.1374 534.376 47.4565 527.527C47.8091 519.806 50.0764 504.616 51.9237 493.219C52.1757 491.691 52.4107 490.214 52.6458 488.804C54.2748 478.884 55.4337 471.717 55.1986 466.598C54.8963 460.572 51.4198 451.239 50.345 448.52C50.177 448.1 49.8916 447.395 49.4884 446.422C47.0365 440.463 40.5371 424.652 37.0608 411.241C31.8712 391.232 28.7642 375.959 27.5719 364.562L27.4374 363.202C26.0267 349.791 24.2802 333.107 24.7168 316.523C25.1198 301.433 31.0147 279.428 33.2315 271.136C33.5506 269.961 33.7857 269.039 33.9536 268.4C35.314 263.063 38.7402 252.186 42.1998 245.707C45.4411 239.631 44.9707 236.744 44.3325 232.767C44.2823 232.397 44.215 232.027 44.1479 231.641C43.7449 228.989 41.2594 216.904 39.0761 206.246C37.9508 200.808 36.9431 195.873 36.372 193.003C37.5476 195.084 39.0424 196.93 40.8395 198.525C43.1906 200.606 46.0121 202.218 49.2366 203.292C52.3771 204.349 55.8367 204.886 59.498 204.886C66.2662 204.886 72.648 202.57 77.4512 198.339C79.8527 196.243 81.7841 193.741 83.2284 190.921C84.7064 188.001 85.6132 184.794 85.8819 181.421L85.1431 181.353C84.0515 194.563 73.2694 204.148 59.4811 204.148C43.9128 204.148 33.853 194.513 33.853 179.592C33.853 177.409 34.0209 175.345 34.3064 173.398H33.5674L33.6682 173.347Z" fill="white"/>
<path d="M100.947 125.627L100.241 125.426C100.51 124.486 100.879 123.512 101.803 122.707C102.945 121.716 104.658 121.23 107.026 121.23H114.281V121.968H107.026C101.971 121.968 101.299 124.352 100.947 125.627Z" fill="black"/>
<path d="M93.4899 270.448C93.1708 270.448 92.8686 270.33 92.6166 270.112C91.6258 269.223 91.5418 266.755 91.9449 264.893C92.1465 263.986 92.6503 262.407 93.7588 262.089L93.9771 262.794C93.4397 262.946 92.9525 263.818 92.667 265.06C92.2473 266.923 92.4487 268.987 93.1037 269.576C93.2885 269.743 93.4901 269.776 93.7419 269.676L93.9771 270.364C93.8092 270.431 93.6411 270.448 93.4731 270.448H93.4899Z" fill="black"/>
<path d="M168.712 253.344L168.292 252.739C170.643 251.145 172.406 248.779 173.28 242.501L174.002 242.602C173.582 245.572 172.945 247.872 172.037 249.6C171.214 251.162 170.157 252.353 168.695 253.344H168.712Z" fill="black"/>
<path d="M17.5125 253.344C16.0515 252.353 14.9934 251.162 14.1705 249.6C13.2636 247.872 12.6254 245.572 12.2056 242.602L12.9277 242.501C13.801 248.779 15.5644 251.129 17.9155 252.739L17.4958 253.344H17.5125Z" fill="black"/>
<path d="M85.3111 125.627C84.9585 124.352 84.2867 121.968 79.2316 121.968H71.9764V121.23H79.2316C81.5996 121.23 83.3126 121.716 84.4546 122.707C85.3784 123.512 85.7479 124.486 86.0166 125.426L85.3111 125.627Z" fill="black"/>
<path d="M76.5951 488.116H75.8561C75.9736 483.6 79.2318 479.085 82.3891 476.601L82.8426 477.172C79.9203 479.471 76.7126 483.869 76.5951 488.098V488.116Z" fill="black"/>
<path d="M66.2492 486.739L66.2155 486.605C65.4765 482.71 65.0568 480.579 62.1177 477.138L62.6719 476.651C65.7453 480.226 66.1651 482.443 66.9376 486.454L66.9713 486.587L66.2492 486.723V486.739Z" fill="black"/>
<path d="M109.663 488.116C109.546 483.886 106.338 479.488 103.416 477.188L103.869 476.617C107.026 479.102 110.285 483.617 110.402 488.098H109.663V488.116Z" fill="black"/>
<path d="M120.008 486.739L119.286 486.605L119.32 486.471C120.092 482.458 120.512 480.244 123.585 476.669L124.139 477.155C121.201 480.579 120.781 482.728 120.042 486.622L120.008 486.756V486.739Z" fill="black"/>
</g>
<defs>
<clipPath id="clip0_4_257">
<rect width="187" height="733" fill="white"/>
</clipPath>
</defs>
</svg>
