<svg width="168" height="267" viewBox="0 0 168 267" fill="none" xmlns="http://www.w3.org/2000/svg">
<g clip-path="url(#clip0_98_209)">
<path d="M139.394 250.471C141.85 254.154 145.429 258.34 159.206 265.162L162.121 266.717H6.2421L8.32479 265.12C22.1435 258.298 25.6814 254.113 28.1372 250.43C31.7583 244.989 33.5897 233.647 33.5897 216.696V184.888C28.2621 177.396 22.6847 168.649 21.1446 163.5C20.2706 160.571 17.9811 152.87 16.0248 142.24C15.7335 140.649 15.4837 139.1 15.234 137.51C13.9437 137.342 12.6952 136.715 11.4465 135.584C5.07821 129.725 -0.0413706 110.348 0.000252007 92.3922C0.0418746 83.8964 1.29056 79.46 3.91279 78.3716C6.57664 77.2832 9.73988 80.0456 12.4037 82.7241C12.5286 62.1328 13.8606 44.5125 20.5618 32.3333C24.9738 24.2976 33.1733 16.2618 43.0379 10.3186C53.4436 4.04068 64.9314 0.399472 75.4619 0.148355C77.6679 -0.102762 84.6607 0.0227966 89.3224 0.106502C90.446 0.148353 91.3616 0.148355 91.9862 0.148355C101.476 0.399472 112.839 3.99883 123.245 9.94198C134.067 16.178 142.516 24.1301 146.97 32.3333C153.629 44.5963 154.961 62.1747 155.128 82.766C157.833 80.0875 160.955 77.2832 163.66 78.4135C166.283 79.5014 167.573 83.9383 167.573 92.4342C167.656 110.389 162.495 129.767 156.127 135.626C154.878 136.757 153.629 137.426 152.339 137.551C152.089 139.142 151.839 140.733 151.548 142.281C149.592 152.912 147.303 160.655 146.428 163.542C144.889 168.732 139.27 177.564 133.942 185.055V216.738C133.942 233.646 135.773 245.03 139.394 250.471Z" fill="black"/>
<path d="M155.585 84.9423C157.791 82.6821 161.163 79.2502 163.036 80.045C164.076 80.4639 165.783 82.6402 165.824 92.3922C165.866 109.594 160.913 128.72 154.961 134.203C154.212 134.914 153.463 135.375 152.714 135.542C154.212 125.498 155.003 115.076 155.128 104.571V101.641C155.211 96.0333 155.252 90.5924 155.252 85.3187C155.377 85.1934 155.503 85.0676 155.627 84.9423H155.585Z" fill="white"/>
<path d="M12.7773 134.203C6.82528 128.72 1.83062 109.594 1.91387 92.3922C1.91387 82.6402 3.66194 80.4639 4.70251 80.045C6.57554 79.2502 9.94687 82.6821 12.1529 84.9423C12.2777 85.0676 12.361 85.1934 12.4859 85.2767C12.4859 90.2993 12.5276 95.4471 12.5692 100.763C12.5692 102.018 12.5692 103.273 12.5692 104.571C12.6525 115.076 13.4847 125.498 14.9831 135.542C14.234 135.333 13.4848 134.914 12.7357 134.203H12.7773Z" fill="white"/>
<path d="M22.977 162.914C17.5244 144.582 14.6522 124.954 14.4441 104.571C14.4441 103.315 14.4441 102.018 14.4441 100.763C14.1527 72.6376 13.9031 48.3627 22.3108 33.17C30.5105 18.2703 52.7371 2.49176 75.7127 1.94767H75.7961C77.7941 1.69655 85.0778 1.82211 89.4481 1.90582C90.5722 1.90582 91.4878 1.90582 92.1119 1.94767C111.841 2.49176 136.815 17.0985 145.514 33.17C153.88 48.5719 153.63 73.1399 153.339 101.599V104.529C153.131 124.912 150.258 144.541 144.806 162.872C143.391 167.644 137.813 176.391 132.403 184.05C132.361 184.134 132.278 184.218 132.236 184.301C129.073 188.779 125.951 192.839 123.745 195.56C106.388 215.398 96.1078 217.993 90.5722 219.416C89.8647 219.583 89.2401 219.751 88.6571 219.918C85.1196 220.839 80.2498 220.211 79.1674 219.918C78.585 219.751 77.9604 219.583 77.2529 219.416C71.7168 218.035 61.4361 215.44 44.0794 195.56C41.8734 192.839 38.7101 188.738 35.5052 184.218C35.5052 184.176 35.4221 184.134 35.4221 184.05C30.0112 176.391 24.4336 167.644 23.0184 162.872L22.977 162.914Z" fill="white"/>
<path d="M29.6347 251.434C27.0124 255.326 23.308 259.721 9.11475 266.752L158.249 266.794C144.014 259.762 140.309 255.368 137.728 251.475C135.273 247.751 133.566 241.514 132.692 232.935C131.985 226.113 131.985 219.501 131.985 216.696V216.696V187.524C129.113 191.5 126.49 194.89 124.909 196.857C107.243 217.039 96.601 219.773 90.8834 221.242L90.8197 221.257C90.1122 221.425 89.5298 221.592 88.9886 221.76C87.4484 222.179 85.7002 222.304 84.0771 222.304C81.5797 222.304 79.332 221.969 78.4993 221.76H78.4582C77.9587 221.592 77.334 221.425 76.6265 221.257L76.5634 221.242C70.8457 219.773 60.2037 217.039 42.5376 196.815C40.9143 194.806 38.2922 191.416 35.3786 187.398V216.654C35.3786 219.459 35.3786 226.071 34.6711 232.893C33.797 241.472 32.0904 247.709 29.6347 251.434Z" fill="white"/>
</g>
<defs>
<clipPath id="clip0_98_209">
<rect width="168" height="267" fill="white"/>
</clipPath>
</defs>
</svg>
