<svg width="187" height="714" viewBox="0 0 187 714" fill="none" xmlns="http://www.w3.org/2000/svg">
<g clip-path="url(#clip0_96_107)">
<path d="M185.95 352.699C185.868 348.299 185.803 344.487 185.786 343.768C185.77 343.228 185.786 342.311 185.803 341.248C185.852 338.958 185.933 335.818 185.606 333.888C185.18 331.368 185.378 312.884 185.491 305.964C185.508 304.886 185.655 301.647 185.835 297.524C186.359 285.73 187.244 266.002 186.785 261.243C186.261 255.845 185.05 250.774 184.412 248.63C183.92 246.963 183.331 242.055 183.576 239.422C183.707 238.113 183.675 234.072 183.642 229.787C183.609 225.468 183.576 221.002 183.707 219.252C183.969 215.671 183.642 180.73 183.609 177.899C183.609 177.622 183.609 177.229 183.609 176.738C183.609 173.631 183.609 166.367 182.775 158.303C181.743 148.243 179.811 140.342 177.045 134.847C174.59 130.005 171.104 126.013 166.684 123.019C162.609 120.255 159.155 119.306 158.468 119.143C142.099 113.924 130.919 109.819 124.306 106.563C118.724 103.815 117.284 102.147 116.302 100.658C114.845 98.4664 114.092 93.9026 114.092 87.0978V74.5514C116.678 70.9363 118.577 67.6484 119.15 65.7182C119.494 64.5567 120.427 61.4487 121.212 57.1794C121.327 56.5578 121.442 55.9199 121.54 55.2819C122.064 55.2328 122.571 54.971 123.062 54.513C125.648 52.1576 127.727 44.3712 127.694 37.1574C127.694 33.7387 127.187 31.9556 126.107 31.5139C125.01 31.0724 123.75 32.1846 122.653 33.2643C122.587 24.9873 122.047 17.9206 119.363 12.997C117.562 9.69272 114.158 6.50295 109.771 4.0002C105.564 1.59561 100.965 0.172488 97.1343 0.0579826C96.8888 0.0579826 96.5123 0.0579839 96.054 0.0416261C94.1716 0.00891049 91.3399 -0.040164 90.456 0.0579826C86.2001 0.172488 81.535 1.61198 77.3284 4.13107C73.3345 6.51931 70.028 9.75815 68.2275 12.9806C65.5103 17.8717 64.9702 24.9546 64.9211 33.2479C63.8407 32.1683 62.564 31.056 61.4836 31.4977C60.4196 31.9393 59.9123 33.7223 59.8959 37.1411C59.8632 44.3549 61.942 52.1412 64.5282 54.4968C65.0193 54.9547 65.5431 55.2164 66.0505 55.2655C66.1487 55.9035 66.2633 56.5415 66.3779 57.163C67.1635 61.4324 68.0966 64.5403 68.4403 65.7018C69.2095 68.2536 72.1069 72.4902 73.4327 74.3551V87.0814C73.4327 93.8862 72.6961 98.45 71.223 100.642C70.2245 102.131 68.8003 103.799 63.2187 106.547C56.6059 109.802 45.4425 113.908 29.0576 119.126C28.3702 119.29 24.9163 120.239 20.8406 123.003C16.4211 126.013 12.9182 129.988 10.4793 134.83C7.69666 140.325 5.76517 148.21 4.75033 158.286C3.9319 166.352 3.91556 173.614 3.91556 176.721C3.91556 177.212 3.91556 177.606 3.91556 177.884C3.88283 180.713 3.55546 215.671 3.81735 219.235C3.9483 220.987 3.91553 225.451 3.88279 229.77C3.85006 234.057 3.8337 238.097 3.94828 239.405C4.19381 242.038 3.6209 246.929 3.11347 248.615C2.85158 249.498 1.50938 254.242 0.740063 261.226C0.0853224 267.197 1.08378 286.695 1.68942 298.342C1.88583 302.17 2.03315 304.935 2.04953 305.964C2.1641 312.884 2.36052 331.385 1.93493 333.888C1.60757 335.818 1.68942 338.958 1.73852 341.233C1.77126 342.296 1.78764 343.211 1.75491 343.751C1.72216 344.471 1.65669 348.266 1.59121 352.667C1.47663 358.964 1.34566 366.783 1.26382 368.631C1.16561 370.726 2.31143 376.451 2.67154 378.169C3.37539 381.554 4.34112 385.578 4.81581 386.396C6.3872 389.21 19.6294 404.798 20.1859 405.453L20.546 405.878L20.7915 405.387C21.0043 404.978 21.1352 404.536 21.2171 404.079C22.8867 401.102 22.1664 397.536 20.9224 395.164C19.6948 392.842 17.9761 390.503 16.5848 388.604C15.2916 386.854 14.1623 385.333 13.9657 384.548C13.5403 382.781 13.3766 379.919 13.1802 376.598C13.0164 373.882 12.8528 370.79 12.4927 367.551C12.5254 367.274 12.5909 366.996 12.6564 366.767C12.7546 367.16 12.8855 367.896 13.0001 369.302V369.352C13.3439 370.775 13.4256 372.263 13.5239 373.703C13.5731 374.586 13.6384 375.42 13.7367 376.206C14.506 384.236 15.8155 388.489 17.6651 388.85C18.369 388.98 18.9583 388.506 19.2201 388.015C20.726 385.235 20.5951 377.269 20.4641 369.58C20.3823 364.362 20.284 359.438 20.7588 356.92V356.87C21.0043 352.731 20.8406 346.713 18.6308 341.494C16.552 336.57 17.2068 329.798 17.436 327.589C17.7469 324.367 20.2023 308.386 23.3123 296.478C24.1634 293.239 24.9491 290.294 25.7184 287.431C27.8299 279.597 29.4995 273.413 30.3343 268.031C31.431 260.932 32.4622 249.743 32.1349 246.406C33.2643 238.408 34.0664 231.259 34.3938 226.237C34.5902 223.326 34.803 220.332 35.0158 217.436C35.2449 214.197 35.4741 211.156 35.6378 208.407C35.7687 206.378 35.9815 200.032 36.1942 193.015C36.7509 195.811 37.8148 200.997 38.9933 206.771C41.1866 217.453 43.6746 229.557 44.0838 232.192C44.1494 232.584 44.1985 232.96 44.264 233.319C44.9188 237.311 45.3444 239.961 42.2016 245.834C38.715 252.393 35.2449 263.369 33.8699 268.735C33.7062 269.373 33.4607 270.304 33.1498 271.467C31.9549 275.933 29.9415 283.408 28.141 291.831C25.9476 302.104 24.7527 310.611 24.5726 317.12C24.1307 333.79 25.8984 350.54 27.3062 364.002L27.4535 365.36C28.6483 376.81 31.7747 392.154 36.9799 412.241C40.4829 425.737 47.0139 441.621 49.4692 447.607C49.862 448.572 50.1566 449.276 50.3204 449.685C51.0733 451.599 54.8216 461.479 55.1327 467.563C55.3781 472.618 54.216 479.767 52.5956 489.663C52.3664 491.086 52.1208 492.558 51.8753 494.096C50.0257 505.53 47.7505 520.792 47.3904 528.562C47.0629 535.497 48.2906 542.711 49.3709 549.058C49.4692 549.663 49.5673 550.252 49.6656 550.841C50.1403 553.703 51.2697 558.12 52.6773 563.715C54.6252 571.37 57.2769 581.871 59.8468 594.484C63.1042 610.482 65.183 626.037 66.2142 642.069C66.7379 650.165 66.0178 659.179 64.3154 666.197C62.7277 672.723 54.9853 697.865 53.0048 703.95C52.0063 707.008 52.0881 709.283 53.2667 710.869C54.6088 712.685 57.3096 713.536 61.7783 713.536C61.9092 713.536 62.0565 713.536 62.1875 713.536C64.3972 713.503 66.1978 713.224 67.9493 712.947C69.9298 712.62 71.8122 712.324 74.2838 712.373C76.2481 712.407 78.0486 712.652 79.6364 712.865C80.8804 713.028 82.0753 713.192 83.1556 713.225C84.3177 713.258 85.3163 712.898 86.1183 712.129C87.346 710.967 87.8207 709.135 87.8369 707.827C87.9188 679.56 87.5096 666.916 87.2641 661.878C87.1004 658.459 87.2477 654.778 87.3787 651.212C87.4769 648.677 87.5751 646.272 87.5424 644.081C87.4932 638.813 88.0825 621.506 88.2135 618.693C88.328 615.978 91.4872 560.099 91.7164 557.384C92.6657 545.737 92.6821 534.843 92.6984 529.609C92.6984 528.922 92.6984 528.333 92.6984 527.859C92.6984 525.666 92.1256 519.319 91.438 511.959C90.4887 501.719 89.3102 488.96 89.392 483.152C89.4248 481.271 89.5393 479.195 89.6703 476.79C89.834 473.927 90.014 470.688 90.1123 466.795C90.1614 464.848 90.2268 461.462 90.3087 457.176C90.5379 445.676 90.8979 428.305 91.1762 419.324C91.2908 415.841 91.4872 411.228 91.7164 406.352C92.2728 393.92 92.9767 378.463 92.5839 369.302C92.2237 361.074 90.8652 353.746 89.8176 348.822C91.2089 347.3 92.4201 345.584 93.4515 343.702C93.7296 343.196 93.9916 342.688 94.2371 342.148C94.8591 344.193 95.9231 346.188 97.3307 347.989C97.4944 348.185 97.6418 348.38 97.8055 348.576C96.7579 353.501 95.3501 360.944 94.99 369.318C94.5972 378.479 95.3011 393.937 95.8576 406.369C96.0704 411.243 96.2832 415.856 96.3978 419.341C96.676 428.305 97.0198 445.693 97.2654 457.193C97.3471 461.495 97.429 464.881 97.4618 466.812C97.5435 470.704 97.7399 473.943 97.9036 476.805C98.0346 479.21 98.1655 481.288 98.1819 483.169C98.2638 488.975 97.0852 501.719 96.1359 511.975C95.4484 519.319 94.8755 525.666 94.8755 527.874C94.8755 528.35 94.8755 528.937 94.8755 529.626C94.8755 534.859 94.9083 545.754 95.8576 557.401C96.0867 560.116 99.2459 615.978 99.3604 618.709C99.475 621.523 100.081 638.829 100.032 644.096C100.015 646.289 100.097 648.693 100.195 651.229C100.326 654.795 100.474 658.491 100.31 661.893C100.064 666.916 99.6715 679.577 99.7368 707.843C99.7696 709.855 100.654 711.376 101.456 712.145C102.258 712.913 103.256 713.29 104.418 713.241C105.499 713.209 106.677 713.045 107.938 712.881C109.525 712.669 111.309 712.424 113.29 712.39C115.762 712.341 117.644 712.652 119.625 712.962C121.36 713.241 123.16 713.536 125.386 713.551C125.534 713.551 125.665 713.551 125.796 713.551C130.264 713.551 132.965 712.701 134.307 710.886C135.486 709.283 135.567 707.025 134.569 703.967C132.588 697.865 124.846 672.739 123.258 666.212C121.54 659.195 120.836 650.182 121.36 642.084C122.391 626.054 124.47 610.498 127.727 594.5C130.296 581.888 132.949 571.387 134.897 563.731C136.32 558.137 137.433 553.72 137.908 550.857C138.006 550.268 138.105 549.679 138.203 549.075C139.283 542.728 140.51 535.514 140.184 528.578C139.823 520.808 137.548 505.547 135.699 494.112C135.452 492.575 135.207 491.102 134.978 489.679C133.358 479.782 132.196 472.634 132.441 467.58C132.736 461.495 136.501 451.615 137.254 449.701C137.418 449.292 137.695 448.588 138.105 447.624C140.559 441.636 147.092 425.753 150.594 412.258C155.816 392.17 158.925 376.827 160.121 365.376L160.268 364.019C161.675 350.556 163.426 333.805 163.001 317.137C162.838 310.611 161.626 302.104 159.434 291.848C157.632 283.424 155.619 275.948 154.425 271.482C154.114 270.304 153.867 269.389 153.704 268.751C152.329 263.369 148.858 252.393 145.372 245.851C142.246 239.977 142.672 237.328 143.31 233.336C143.376 232.977 143.425 232.6 143.49 232.207C143.9 229.574 146.387 217.47 148.581 206.788C149.743 201.128 150.79 196.008 151.347 193.178C151.56 200.13 151.756 206.395 151.887 208.407C152.067 211.156 152.28 214.214 152.509 217.436C152.722 220.332 152.935 223.309 153.131 226.237C153.459 231.259 154.276 238.408 155.391 246.406C155.046 249.759 156.093 260.932 157.191 268.031C158.025 273.413 159.695 279.597 161.807 287.431C162.575 290.278 163.377 293.239 164.213 296.478C167.322 308.386 169.778 324.384 170.089 327.589C170.301 329.815 170.972 336.57 168.894 341.494C166.684 346.713 166.505 352.731 166.75 356.87V356.92C167.224 359.438 167.143 364.362 167.044 369.58C166.914 377.269 166.782 385.235 168.288 388.015C168.55 388.523 169.14 388.997 169.844 388.866C171.676 388.506 173.002 384.253 173.772 376.221C173.87 375.436 173.936 374.603 173.985 373.718C174.083 372.279 174.164 370.79 174.492 369.367V369.318C174.623 367.928 174.753 367.176 174.836 366.783C174.902 367.013 174.966 367.29 175 367.568C174.64 370.807 174.459 373.882 174.312 376.614C174.115 379.934 173.951 382.798 173.526 384.564C173.33 385.35 172.217 386.871 170.923 388.621C169.533 390.503 167.797 392.857 166.586 395.181C165.341 397.536 164.622 401.118 166.292 404.096C166.373 404.553 166.505 404.995 166.718 405.404L166.963 405.895L167.322 405.469C167.88 404.815 181.122 389.227 182.693 386.412C183.152 385.578 184.133 381.571 184.837 378.184C185.197 376.483 186.342 370.741 186.244 368.648C186.163 366.8 186.016 358.964 185.917 352.682L185.95 352.699Z" fill="black"/>
<path d="M122.652 40.8539C122.669 38.5966 122.702 36.4046 122.685 34.2944C122.734 34.2454 122.783 34.1963 122.832 34.1472C123.733 33.2313 125.091 31.8735 125.844 32.1844C126.253 32.3479 126.957 33.2149 126.974 37.1408C126.99 44.0601 124.993 51.7482 122.57 53.9565C122.26 54.2346 121.948 54.4145 121.654 54.4964C122.26 50.4559 122.587 46.2684 122.62 42.048V40.8703L122.652 40.8539Z" fill="white"/>
<path d="M65.0686 53.9406C62.6625 51.7488 60.6491 44.0443 60.6655 37.1249C60.6655 33.1991 61.3694 32.3321 61.795 32.1685C62.5643 31.8577 63.9229 33.2318 64.8067 34.1314C64.8559 34.1805 64.905 34.2296 64.9377 34.2787C64.9377 36.2907 64.9541 38.3681 64.9705 40.511C64.9705 41.018 64.9705 41.5252 64.9705 42.0322C65.0031 46.2689 65.3306 50.4401 65.9362 54.4805C65.6415 54.3987 65.3306 54.2188 65.0195 53.9406H65.0686Z" fill="white"/>
<path d="M182.086 386.069C181.022 387.949 174.279 396.096 170.121 401.069C169.842 399.63 170.645 397.078 172.381 393.872C174.213 390.486 176.522 387.426 177.847 386.15L177.962 386.052V385.905C178.109 382.847 178.682 374.226 179.271 369.351V369.188L179.173 369.057C177.635 367.437 176.309 363.675 175.621 358.947C174.95 354.416 175.015 350.065 175.785 347.562L175.081 347.349C174.279 349.935 174.213 354.433 174.885 359.062C175.588 363.872 176.914 367.634 178.518 369.433C177.945 374.275 177.373 382.569 177.226 385.725C175.637 387.296 173.346 390.535 171.725 393.512C170.268 396.194 168.746 399.76 169.548 401.74C168.501 402.999 167.65 403.996 167.191 404.536C165.963 400.66 170.58 393.839 173.69 389.242C174.623 387.868 175.424 386.673 175.964 385.742L176.013 385.66V385.561C176.113 382.241 176.62 377.416 176.979 373.899C177.094 372.868 177.177 371.968 177.258 371.232L176.522 371.167C176.456 371.902 176.358 372.803 176.243 373.833C175.883 377.333 175.375 382.11 175.277 385.463C174.753 386.363 173.968 387.524 173.068 388.85C170.351 392.874 166.848 398.043 166.308 402.099C165.718 399.777 166.34 397.306 167.257 395.54C168.452 393.266 170.17 390.943 171.545 389.078C172.953 387.181 174.049 385.693 174.279 384.76C174.721 382.928 174.9 380.032 175.081 376.68C175.245 373.948 175.409 370.873 175.768 367.634V367.6V367.551C175.736 367.307 175.67 366.913 175.556 366.537C175.474 366.292 175.311 365.703 174.852 365.703C174.377 365.703 174.213 366.358 174.149 366.669C174.017 367.224 173.902 368.091 173.804 369.237C173.46 370.709 173.379 372.214 173.281 373.669C173.232 374.554 173.166 375.371 173.068 376.14C172.053 386.886 170.268 388.049 169.744 388.147C169.352 388.228 169.074 387.836 168.991 387.688C167.568 385.072 167.715 376.859 167.846 369.614C167.944 364.378 168.027 359.422 167.535 356.821C167.306 352.765 167.469 346.875 169.614 341.805C171.774 336.701 171.087 329.798 170.874 327.54C170.563 324.318 168.091 308.255 164.965 296.314C164.114 293.075 163.328 290.13 162.559 287.268C160.447 279.465 158.779 273.282 157.96 267.95C156.863 260.866 155.832 249.711 156.175 246.472V246.423V246.374C155.046 238.374 154.244 231.226 153.917 226.221C153.72 223.293 153.508 220.315 153.295 217.421C153.065 214.197 152.836 211.139 152.672 208.39C152.346 203.222 151.478 169.672 151.478 169.329H150.741C150.741 169.541 151.019 179.977 151.314 190.119C151.15 191.199 149.529 198.805 147.909 206.673C145.716 217.355 143.228 229.476 142.819 232.126C142.753 232.518 142.704 232.879 142.638 233.255C141.983 237.245 141.526 240.141 144.766 246.226C148.22 252.72 151.674 263.631 153.033 268.964C153.197 269.617 153.442 270.534 153.753 271.712C155.979 280.021 161.905 302.088 162.297 317.203C162.739 333.822 160.988 350.539 159.579 363.985L159.432 365.344C158.238 376.761 155.128 392.056 149.922 412.127C146.437 425.572 139.921 441.423 137.466 447.394C137.074 448.375 136.778 449.079 136.615 449.487C135.551 452.203 132.048 461.56 131.754 467.596C131.507 472.716 132.671 479.914 134.307 489.843C134.536 491.265 134.782 492.739 135.027 494.276C136.876 505.694 139.153 520.939 139.496 528.66C139.806 535.53 138.595 542.679 137.531 548.992C137.433 549.598 137.335 550.186 137.237 550.775C136.763 553.605 135.65 558.005 134.225 563.583C132.277 571.255 129.609 581.757 127.056 594.386C123.798 610.416 121.72 626.005 120.672 642.068C120.148 650.231 120.868 659.326 122.587 666.425C124.191 672.968 131.918 698.142 133.914 704.244C134.831 707.057 134.782 709.119 133.767 710.509C132.539 712.178 129.904 712.914 125.452 712.865C123.291 712.848 121.523 712.554 119.804 712.276C117.873 711.965 115.876 711.638 113.339 711.687C111.326 711.72 109.509 711.965 107.905 712.194C106.677 712.358 105.515 712.522 104.467 712.554C103.518 712.586 102.699 712.276 102.045 711.654C100.981 710.64 100.571 709.037 100.555 707.875C100.473 679.626 100.882 666.997 101.128 661.976C101.292 658.524 101.144 654.827 101.013 651.245C100.915 648.709 100.833 646.321 100.85 644.145C100.899 638.878 100.31 621.539 100.179 618.726C100.064 615.994 96.9049 560.116 96.6757 557.384C95.7264 545.771 95.71 534.892 95.6936 529.673C95.6936 528.986 95.6936 528.399 95.6936 527.923C95.6936 525.764 96.2665 519.434 96.9376 512.105C97.8871 501.849 99.0656 489.075 98.9837 483.234C98.9509 481.337 98.8364 479.259 98.7055 476.854C98.5418 474.008 98.3617 470.77 98.2635 466.876C98.2144 464.93 98.1489 461.544 98.0671 457.258C97.8379 445.759 97.4779 428.37 97.1995 419.405C97.0849 415.905 96.8886 411.309 96.6594 406.418C96.1028 394.003 95.3989 378.56 95.7918 369.433C96.1356 361.401 97.4451 354.237 98.4763 349.346C100.211 351.227 102.356 352.846 104.86 354.188C110.393 357.148 117.791 359.438 125.566 359.438C130.543 359.438 135.682 358.49 140.56 356.183L140.249 355.513C128.005 361.32 114.125 358.309 105.22 353.55C99.7531 350.638 95.9719 346.139 94.7769 341.199C96.2501 337.748 97.2487 333.741 97.7724 329.242C98.9837 318.593 97.3796 306.406 95.6609 295.889L94.9407 296.003C97.6905 312.72 99.1473 329.176 94.1549 340.889C94.1058 340.987 94.0732 341.084 94.024 341.184C92.8128 343.947 91.2413 346.434 89.2281 348.593C89.1789 348.642 89.1462 348.676 89.097 348.725C87.3293 350.589 85.2178 352.208 82.7461 353.533C77.3609 356.412 70.0442 358.686 62.3836 358.686C57.866 358.686 53.2173 357.901 48.7486 355.97L48.4541 356.642C51.3513 357.884 54.4613 358.719 57.7023 359.128C59.2409 359.324 60.8123 359.422 62.4 359.422C63.8896 359.422 65.3955 359.34 66.9178 359.177C72.4667 358.556 78.2121 356.789 83.0898 354.188C85.4142 352.944 87.4766 351.407 89.2772 349.575C90.292 354.466 91.5852 361.533 91.9125 369.45C92.3053 378.577 91.6015 394.018 91.0449 406.435C90.8158 411.309 90.6193 415.922 90.5048 419.422C90.2265 428.387 89.8828 445.774 89.6373 457.274C89.5554 461.56 89.4736 464.962 89.4409 466.893C89.359 470.786 89.1626 474.008 88.9989 476.871C88.868 479.292 88.737 481.369 88.7206 483.267C88.6388 489.107 89.8173 501.881 90.7667 512.138C91.4379 519.467 92.027 525.797 92.0107 527.957C92.0107 528.431 92.0107 529.02 92.0107 529.707C92.0107 534.941 91.978 545.803 91.0287 557.416C90.7995 560.132 87.6404 616.026 87.5257 618.758C87.4112 621.572 86.8054 638.911 86.8546 644.179C86.871 646.354 86.7891 648.742 86.6909 651.278C86.56 654.86 86.4127 658.573 86.5764 662.008C86.822 667.031 87.2147 679.658 87.1493 707.908C87.1329 709.07 86.7237 710.689 85.6597 711.687C85.005 712.309 84.1865 712.62 83.2372 712.586C82.1896 712.554 81.0274 712.39 79.7998 712.227C78.1957 712.014 76.3787 711.769 74.3654 711.72C71.8283 711.671 69.8314 711.997 67.8999 712.309C66.1812 712.586 64.4134 712.865 62.2527 712.898C57.8005 712.947 55.1652 712.194 53.9375 710.542C52.9227 709.151 52.8736 707.107 53.7903 704.277C55.7708 698.176 63.5131 673 65.1172 666.457C66.8523 659.375 67.5562 650.263 67.0323 642.101C66.0011 626.037 63.9059 610.448 60.6487 594.418C58.0788 581.79 55.4107 571.288 53.4792 563.617C52.0715 558.039 50.9421 553.639 50.4673 550.808C50.3692 550.219 50.2709 549.63 50.1728 549.025C49.0924 542.711 47.8812 535.546 48.2085 528.692C48.5686 520.956 50.8438 505.726 52.6772 494.308C52.9226 492.771 53.1681 491.299 53.3973 489.875C55.0178 479.93 56.1964 472.749 55.9508 467.629C55.6561 461.577 52.1533 452.236 51.0893 449.521C50.9257 449.096 50.631 448.392 50.2382 447.427C47.7829 441.457 41.2682 425.606 37.7818 412.16C32.5766 392.105 29.4665 376.793 28.2716 365.376L28.1243 364.019C26.7167 350.573 24.9652 333.839 25.4072 317.235C25.8 302.121 31.7254 280.054 33.9515 271.744C34.2626 270.566 34.508 269.651 34.6718 268.996C36.0303 263.648 39.4841 252.753 42.9378 246.259C46.1789 240.158 45.7205 237.279 45.0658 233.287C45.0002 232.928 44.9512 232.551 44.8857 232.158C44.4765 229.508 41.9885 217.387 39.7951 206.706C38.2565 199.23 36.6523 191.705 36.3577 190.07C36.6523 179.96 36.9142 169.574 36.9142 169.393H36.1777C36.1777 169.721 35.3102 203.271 34.9827 208.44C34.8027 211.188 34.5899 214.231 34.3607 217.47C34.1479 220.364 33.9351 223.342 33.7387 226.27C33.4114 231.275 32.593 238.44 31.4799 246.423V246.472V246.521C31.8236 249.759 30.7924 260.915 29.6958 267.999C28.8774 273.347 27.2078 279.514 25.0962 287.317C24.3268 290.179 23.5248 293.124 22.69 296.363C19.5636 308.32 17.1083 324.367 16.7809 327.589C16.5517 329.864 15.8806 336.767 18.0413 341.854C20.1856 346.924 20.3656 352.814 20.1201 356.87C19.6455 359.471 19.7273 364.411 19.8091 369.663C19.94 376.908 20.0711 385.12 18.6469 387.737C18.5651 387.885 18.2705 388.277 17.894 388.196C17.3701 388.098 15.586 386.936 14.5712 376.204C14.4729 375.436 14.4074 374.603 14.3584 373.735C14.2601 372.279 14.1784 370.775 13.8346 369.302C13.7364 368.14 13.6218 367.274 13.4909 366.734C13.409 366.424 13.2617 365.769 12.787 365.769C12.3287 365.769 12.165 366.358 12.0832 366.603C11.9686 366.962 11.9031 367.372 11.8704 367.617V367.666V367.7C12.2305 370.938 12.4106 374.014 12.5579 376.745C12.7543 380.098 12.918 382.994 13.36 384.825C13.5891 385.758 14.6857 387.263 16.0935 389.144C17.4684 391.009 19.1871 393.332 20.382 395.605C21.2987 397.355 21.9207 399.843 21.3313 402.165C20.7912 398.108 17.3048 392.94 14.5712 388.915C13.6709 387.59 12.9016 386.445 12.3615 385.529C12.2469 382.192 11.7558 377.399 11.3957 373.899C11.2811 372.868 11.1993 371.968 11.1174 371.232L10.3808 371.298C10.4463 372.034 10.5445 372.934 10.6591 373.965C11.0192 377.48 11.5266 382.307 11.6249 385.627V385.725L11.674 385.807C12.2141 386.739 13.0161 387.934 13.9492 389.308C17.0592 393.904 21.6751 400.725 20.4475 404.602C19.9892 404.062 19.138 403.065 18.0904 401.805C18.8925 399.826 17.3701 396.26 15.9134 393.578C14.2929 390.601 12.0177 387.362 10.4136 385.791C10.2663 382.634 9.70974 374.341 9.12047 369.499C10.7246 367.7 12.0341 363.936 12.7543 359.128C13.4417 354.498 13.36 350.016 12.5579 347.415L11.854 347.628C12.6233 350.114 12.6888 354.482 12.0177 359.013C11.3302 363.724 10.0044 367.502 8.46574 369.123L8.35115 369.253V369.416C8.95679 374.291 9.54604 382.911 9.677 385.971V386.118L9.79158 386.216C11.1174 387.492 13.4254 390.552 15.2587 393.937C16.9937 397.142 17.7959 399.711 17.5176 401.134C13.3436 396.162 6.59974 388.015 5.55215 386.135C4.7992 384.81 1.95104 371.772 2.09836 368.763C2.1802 366.898 2.32753 359.062 2.42575 352.765C2.5076 348.364 2.57307 344.569 2.58945 343.866C2.60582 343.293 2.58942 342.36 2.57306 341.297C2.52395 339.04 2.44208 335.949 2.75309 334.084C3.27689 330.992 2.88405 306.275 2.86768 306.03C2.85131 304.999 2.704 302.219 2.50757 298.391C1.95104 287.529 0.919845 267.312 1.55822 261.39C2.31117 254.47 3.65338 249.792 3.8989 248.909C4.40633 247.175 5.01195 242.136 4.75005 239.422C4.63548 238.146 4.65188 234.121 4.68461 229.853C4.71736 225.517 4.75007 221.035 4.61912 219.252C4.3736 215.866 4.66823 182.954 4.71733 177.965C4.71733 177.687 4.71733 177.295 4.71733 176.787C4.73371 157.682 6.92708 143.696 11.1993 135.222C13.589 130.494 17.0101 126.602 21.3313 123.657C25.3253 120.942 28.6808 120.042 29.3192 119.879H29.3356C45.7533 114.644 56.9657 110.522 63.6114 107.25C69.3567 104.421 70.8626 102.654 71.9102 101.084C72.9086 99.595 73.5961 97.0759 73.9562 93.6407C74.2344 90.8926 74.2345 88.2427 74.2345 87.114V64.6548H73.4979V73.0954C71.239 69.8565 69.684 67.1248 69.2094 65.5054C66.9996 58.128 65.8375 50.2436 65.7556 42.0483C65.7556 41.5411 65.7556 41.0341 65.7556 40.527C65.641 29.2237 65.5428 19.4745 68.9311 13.3567C72.2539 7.36978 81.2402 1.02295 90.5376 0.793945H90.5703C91.3724 0.695799 94.3187 0.744871 96.0864 0.777586C96.5448 0.777586 96.9212 0.777588 97.1668 0.793945C105.155 1.02295 115.238 6.87904 118.773 13.3567C122.161 19.5564 122.063 29.4364 121.949 40.8706V42.0483C121.867 50.2436 120.705 58.128 118.495 65.5054C117.988 67.1902 116.351 70.1019 114.141 73.2753V64.6384H113.404V87.0977C113.404 88.2263 113.404 90.8762 113.683 93.6243C114.043 97.0759 114.73 99.5786 115.729 101.067C116.776 102.637 118.282 104.404 124.027 107.234C130.673 110.506 141.885 114.628 158.303 119.862H158.319C158.958 120.026 162.313 120.926 166.308 123.641C170.629 126.569 174.034 130.462 176.439 135.206C180.728 143.679 182.905 157.648 182.922 176.77C182.922 177.278 182.922 177.671 182.922 177.948C182.987 182.937 183.282 215.85 183.02 219.235C182.889 221.019 182.921 225.5 182.954 229.836C182.987 234.106 183.003 238.129 182.889 239.405C182.627 242.121 183.233 247.159 183.74 248.892C184.378 251.019 185.574 256.024 186.081 261.357C186.54 266.068 185.655 285.762 185.131 297.541C184.935 301.826 184.804 304.918 184.787 305.998C184.787 306.243 184.378 330.96 184.902 334.051C185.213 335.916 185.148 339.007 185.082 341.265C185.049 342.345 185.033 343.277 185.066 343.833C185.099 344.536 185.164 348.331 185.229 352.731C185.344 359.03 185.476 366.849 185.557 368.713C185.704 371.723 182.84 384.744 182.103 386.086L182.086 386.069Z" fill="white"/>
<path d="M113.977 178.701C108.314 178.701 107.528 172.06 107.168 168.87L107.904 168.789C108.461 173.548 109.574 177.965 113.994 177.965V178.701H113.977Z" fill="black"/>
<path d="M74.5128 178.701V177.965C78.916 177.965 80.0454 173.548 80.6019 168.789L81.3386 168.87C80.9621 172.06 80.1927 178.701 74.5292 178.701H74.5128Z" fill="black"/>
<path d="M94.4174 248.091C90.5381 242.431 92.3714 216.177 93.3698 202.076L93.4517 200.883L94.1882 200.932L94.1064 202.125C93.1898 215.131 91.291 242.219 95.0394 247.665L94.4338 248.075L94.4174 248.091Z" fill="black"/>
<path d="M125.55 483.446C124.813 482.334 121.212 475.726 121.245 472.488H121.981C121.965 475.399 125.304 481.73 126.172 483.038L125.566 483.446H125.55Z" fill="black"/>
<path d="M107.168 484.33L106.596 483.872C107.823 482.368 108.854 479.456 109.378 477.853C110.164 475.365 110.59 473.24 110.59 472.503H111.326C111.326 474.385 109.346 481.664 107.168 484.346V484.33Z" fill="black"/>
<path d="M62.0727 483.446L61.467 483.038C62.3346 481.745 65.6738 475.416 65.6574 472.503H66.3939C66.4103 475.726 62.8256 482.351 62.089 483.446H62.0727Z" fill="black"/>
<path d="M80.455 484.33C78.278 481.647 76.2974 474.385 76.2974 472.488H77.034C77.034 473.223 77.4596 475.35 78.2453 477.836C78.7527 479.439 79.8002 482.351 81.028 483.856L80.455 484.314V484.33Z" fill="black"/>
<path d="M111.408 673.606C108.412 673.606 105.335 672.2 103.813 670.074L104.418 669.648C105.957 671.807 109.28 673.149 112.308 672.838C114.403 672.609 117.251 671.529 118.937 667.62L119.608 667.914C118.168 671.218 115.598 673.23 112.374 673.574C112.046 673.606 111.735 673.623 111.408 673.623V673.606Z" fill="black"/>
<path d="M116.695 699.157L116.105 698.699C118.102 696.131 118.07 691.682 117.726 687.248L118.463 687.199C118.806 691.78 118.839 696.392 116.695 699.157Z" fill="black"/>
<path d="M114.861 648.334C113.83 645.259 113.863 639.222 113.879 634.822V634.609H114.616V634.822C114.6 639.173 114.567 645.144 115.565 648.105L114.861 648.334Z" fill="black"/>
<path d="M106.317 648.366L105.728 647.924C107.299 645.765 107.856 637.816 108.052 634.839L108.789 634.888C108.429 640.073 107.823 646.289 106.317 648.366Z" fill="black"/>
<path d="M76.2313 673.606C75.9039 673.606 75.5765 673.589 75.2655 673.557C72.041 673.213 69.4711 671.201 68.0306 667.897L68.7018 667.603C70.404 671.512 73.2522 672.592 75.331 672.821C78.3591 673.149 81.6656 671.807 83.2206 669.631L83.8262 670.057C82.3039 672.2 79.2267 673.589 76.2313 673.589V673.606Z" fill="black"/>
<path d="M70.9284 699.157C68.7841 696.392 68.8005 691.78 69.1606 687.199L69.8972 687.248C69.5534 691.682 69.5206 696.131 71.5177 698.699L70.9284 699.157Z" fill="black"/>
<path d="M72.7614 648.334L72.0575 648.105C73.0397 645.144 73.0233 639.173 73.0069 634.822V634.609H73.7436V634.822C73.76 639.222 73.7926 645.259 72.7614 648.349V648.334Z" fill="black"/>
<path d="M81.3062 648.366C79.8004 646.305 79.1947 640.073 78.8346 634.888L79.5712 634.839C79.784 637.831 80.3241 645.765 81.8955 647.924L81.3062 648.366Z" fill="black"/>
<path d="M169.499 250.855C169.352 250.855 169.205 250.855 169.041 250.855C167.405 250.757 165.784 250.185 164.688 249.301L165.145 248.728C166.93 250.151 170.908 250.986 173.412 248.728L173.902 249.285C172.757 250.315 171.218 250.855 169.499 250.855Z" fill="black"/>
<path d="M18.1234 250.855C16.4046 250.855 14.8659 250.3 13.7202 249.285L14.2112 248.728C16.7156 250.97 20.6769 250.151 22.4774 248.728L22.9357 249.301C21.839 250.185 20.2022 250.757 18.5816 250.855C18.4343 250.855 18.287 250.855 18.1234 250.855Z" fill="black"/>
</g>
<defs>
<clipPath id="clip0_96_107">
<rect width="187" height="714" fill="white"/>
</clipPath>
</defs>
</svg>
